<?xml version="1.0" encoding="UTF-8" standalone="no"?>
<!-- Created with Inkscape (http://www.inkscape.org/) -->

<svg
   xmlns:dc="http://purl.org/dc/elements/1.1/"
   xmlns:cc="http://creativecommons.org/ns#"
   xmlns:rdf="http://www.w3.org/1999/02/22-rdf-syntax-ns#"
   xmlns:svg="http://www.w3.org/2000/svg"
   xmlns="http://www.w3.org/2000/svg"
   xmlns:sodipodi="http://sodipodi.sourceforge.net/DTD/sodipodi-0.dtd"
   xmlns:inkscape="http://www.inkscape.org/namespaces/inkscape"
   width="80mm"
   height="79.997231mm"
   viewBox="0 0 80 79.99723"
   version="1.1"
   id="svg8"
   inkscape:version="0.92.4 (5da689c313, 2019-01-14)"
   sodipodi:docname="Gray_10bit_rotary_encoder.svg">
  <defs
     id="defs2">
    <inkscape:path-effect
       effect="skeletal"
       id="path-effect8139"
       is_visible="true"
       pattern="m 270.13957,270.27709 h 0.52917 m -1.5875,0 h 0.52917 m -1.58751,0 h 0.52917 m -1.5875,0 h 0.52917 m -1.5875,0 h 0.52917 m -1.58751,0 h 0.52917 m -1.5875,0 h 0.52917 m -1.5875,0 h 0.52917 m -1.5875,0 h 0.52917 m -1.58751,0 h 0.52917 m -1.5875,0 h 0.52917 m -1.5875,0 h 0.52917 m -1.58751,0 h 0.52917 m -1.5875,0 h 0.52917 m -1.5875,0 h 0.52917 m -1.58751,0 h 0.52917 m -1.5875,0 h 0.52917 m -1.5875,0 h 0.52917 m -1.58751,0 h 0.52917 m -1.5875,0 h 0.52917 m -1.5875,0 h 0.52917 m -1.58751,0 h 0.52917 m -1.5875,0 h 0.52917 m -1.5875,0 h 0.52917 m -1.58751,0 h 0.52917 m -1.5875,0 h 0.52917 m -1.5875,0 h 0.52917 m -1.58751,0 h 0.52917 m -1.5875,0 h 0.52917 m -1.5875,0 h 0.52917 m -1.58751,0 h 0.52917 m -1.5875,0 h 0.52917 m -1.5875,0 h 0.52917 m -1.58751,0 h 0.52917 m -1.5875,0 h 0.52917 m -1.5875,0 h 0.52917 m -1.58751,0 h 0.52917 m -1.5875,0 h 0.52917 m -1.5875,0 h 0.52917 m -1.58751,0 h 0.52917 m -1.5875,0 h 0.52917 m -1.5875,0 h 0.52917 m -1.58751,0 h 0.52917 m -1.5875,0 h 0.52917 m -1.5875,0 h 0.52917 m -1.58751,0 h 0.52917 m -1.5875,0 h 0.52917 m -1.5875,0 h 0.52917 m -1.58751,0 h 0.52917 m -1.5875,0 h 0.52917 m -1.5875,0 h 0.52917 m -1.58751,0 h 0.52917 m -1.5875,0 h 0.52917 m -1.5875,0 h 0.52917 m -1.58751,0 h 0.52917 m -1.5875,0 h 0.52917 m -1.5875,0 h 0.52917 m -1.58751,0 h 0.52917 m -1.5875,0 h 0.52917 m -1.5875,0 h 0.52917 m -1.58751,0 h 0.52917 m -1.5875,0 h 0.52917 m -1.5875,0 h 0.52917 m -1.58751,0 h 0.52917 m -1.5875,0 h 0.52917 m -1.5875,0 h 0.52917 m -1.58751,0 h 0.52917 m -1.5875,0 h 0.52917 m -1.5875,0 h 0.52917 m -1.58751,0 h 0.52917 m -1.5875,0 h 0.52917 m -1.5875,0 h 0.52917 m -1.58751,0 h 0.52917 m -1.5875,0 h 0.52917 m -1.5875,0 h 0.52917 m -1.58751,0 h 0.52917 m -1.5875,0 h 0.52917 m -1.5875,0 h 0.52917 m -1.58751,0 h 0.52917 m -1.5875,0 h 0.52917 m -1.5875,0 h 0.52917 m -1.58751,0 h 0.52917 m -1.5875,0 h 0.52917 m -1.5875,0 h 0.52917 m -1.58751,0 h 0.52917 m -1.5875,0 h 0.52917 m -1.5875,0 h 0.52917 m -1.58751,0 h 0.52917 m -1.5875,0 h 0.52917 m -1.5875,0 h 0.52917 m -1.58751,0 h 0.52917 m -1.5875,0 h 0.52917 m -1.5875,0 h 0.52917 m -1.58751,0 h 0.52917 m -1.5875,0 h 0.52917 m -1.5875,0 h 0.52917 m -1.58751,0 h 0.52917 m -1.5875,0 h 0.52917 m -1.5875,0 h 0.52917 m -1.58751,0 h 0.52917 m -1.5875,0 h 0.52917 m -1.5875,0 h 0.52917 m -1.58751,0 h 0.52917 m -1.5875,0 h 0.52917 m -1.5875,0 h 0.52917 m -1.58751,0 h 0.52917 m -1.5875,0 h 0.52917 m -1.5875,0 h 0.52917 m -1.5875,0 h 0.52917 m -1.58751,0 h 0.52917 m -1.5875,0 h 0.52917 m -1.5875,0 h 0.52917 m -1.58751,0 h 0.52917 m -1.5875,0 h 0.52917 m -1.5875,0 h 0.52917 m -1.58751,0 h 0.52917 m -1.5875,0 h 0.52917 m -1.5875,0 h 0.52917 m -1.58751,0 h 0.52917 m -1.5875,0 h 0.52917 m -1.5875,0 h 0.52917 m -1.58751,0 h 0.52917 m -1.5875,0 h 0.52917 m -1.5875,0 h 0.52917 m -1.58751,0 h 0.52917 m -1.5875,0 h 0.52917 m -1.5875,0 h 0.52917 m -1.58751,0 h 0.52917 m -1.5875,0 h 0.52917 m -1.5875,0 h 0.52917 m -1.58751,0 h 0.52917 m -1.5875,0 h 0.52917 m -1.5875,0 h 0.52917 m -1.58751,0 h 0.52917 m -1.5875,0 h 0.52917 m -1.5875,0 h 0.52917 m -1.58751,0 h 0.52917 m -1.5875,0 h 0.52917 m -1.5875,0 h 0.52917 m -1.58751,0 h 0.52917 m -1.5875,0 h 0.52917 m -1.5875,0 h 0.52917 m -1.58751,0 h 0.52917 m -1.5875,0 h 0.52917 m -1.5875,0 h 0.52917 m -1.58751,0 h 0.52917 m -1.5875,0 h 0.52917 m -1.5875,0 h 0.52917 m -1.58751,0 h 0.52917 m -1.5875,0 h 0.52917 m -1.5875,0 h 0.52917 m -1.58751,0 h 0.52917 m -1.5875,0 h 0.52917 m -1.5875,0 h 0.52917 m -1.58751,0 h 0.52917 m -1.5875,0 h 0.52917 m -1.5875,0 h 0.52917 m -1.58751,0 h 0.52917 m -1.5875,0 h 0.52917 m -1.5875,0 h 0.52917 m -1.58751,0 h 0.52917 m -1.587497,0 h 0.529167 m -1.5875,0 h 0.529167 m -1.5875,0 h 0.529167 m -1.587501,0 h 0.529167 m -1.5875,0 h 0.529167 m -1.5875,0 h 0.529167 m -1.587501,0 h 0.529167 m -1.5875,0 h 0.529167 m -1.5875,0 h 0.529167 m -1.587501,0 h 0.529167 m -1.5875,0 h 0.529167 m -1.5875,0 h 0.529167 m -1.5875,0 h 0.529167 m -1.587501,0 h 0.529167 m -1.5875,0 h 0.529167 m -1.5875,0 h 0.529167 m -1.587501,0 h 0.529167 m -1.5875,0 h 0.529167 m -1.5875,0 h 0.529167 m -1.587501,0 h 0.529167 m -1.5875,0 h 0.529167 m -1.5875,0 h 0.529167 m -1.5875,0 h 0.529167 m -1.587501,0 h 0.529167 m -1.5875,0 h 0.529167 m -1.5875,0 h 0.529167 m -1.587501,0 h 0.529167 m -1.5875,0 h 0.529167 m -1.5875,0 h 0.529167 m -1.587501,0 h 0.529167 m -1.5875,0 h 0.529167 m -1.5875,0 h 0.529167 m -1.5875,0 h 0.529167 m -1.587501,0 h 0.529167 m -1.5875,0 h 0.529167 m -1.5875,0 h 0.529167 m -1.587501,0 h 0.529167 m -1.5875,0 h 0.529167 m -1.5875,0 h 0.529167 m -1.587501,0 h 0.529167 m -1.5875,0 h 0.529167 m -1.5875,0 h 0.529167 m -1.5875,0 h 0.529167 m -1.587501,0 h 0.529167 m -1.5875,0 h 0.529167 m -1.5875,0 h 0.529167 m -1.587501,0 h 0.529167 m -1.5875,0 h 0.529167 m -1.5875,0 h 0.529167 m -1.587501,0 h 0.529167 m -1.5875,0 h 0.529167 m -1.5875,0 h 0.529167 m -1.5875,0 h 0.529167 m -1.587501,0 h 0.529167 m -1.5875,0 h 0.529167 m -1.5875,0 h 0.529167 m -1.587501,0 h 0.529167 m -1.5875,0 h 0.529167 m -1.5875,0 h 0.529167 m -1.587501,0 h 0.529167 m -1.5875,0 h 0.529167 m -1.5875,0 h 0.529167 m -1.5875,0 h 0.529167 m -1.587501,0 h 0.529167 m -1.5875,0 h 0.529167 m -1.5875,0 h 0.529167 m -1.587501,0 h 0.529167 m -1.5875,0 h 0.529167 m -1.5875,0 h 0.529167 m -1.587501,0 h 0.529167 m -1.5875,0 h 0.529167 m -1.5875,0 h 0.529167 m -1.5875,0 h 0.529167 m -1.587501,0 h 0.529167 m -1.5875,0 h 0.529167 m -1.5875,0 h 0.529167 m -1.587501,0 h 0.529167 m -1.5875,0 h 0.529167 m -1.5875,0 h 0.529167 m -1.5875,0 h 0.529167 m -1.587501,0 h 0.529167 m -1.5875,0 h 0.529167 m -1.5875,0 h 0.529167 m -1.587501,0 h 0.529167 m -1.5875,0 h 0.529167 m -1.5874999,0 H 10.31875 m -1.5875002,0 h 0.5291666 m -1.5875,0 h 0.5291667 m -1.5875,0 h 0.5291667 m -1.5875,0 h 0.5291667 m -1.5875,0 h 0.5291667 m -1.5874999,0 h 0.5291666 m -1.5874999,0 h 0.5291666 m -1.5875,0 h 0.5291667 m -1.58749995,0 H 0.79375 m -0.52916665,0 H 0.79375 m 268.55208,1.05833 h 1.05833 m -3.175,0 h 1.05833 m -3.17499,0 h 1.05833 m -3.175,0 h 1.05833 m -3.17499,0 h 1.05833 m -3.175,0 h 1.05833 m -3.175,0 h 1.05833 m -3.17499,0 h 1.05833 m -3.175,0 h 1.05833 m -3.175,0 h 1.05833 m -3.17499,0 h 1.05833 m -3.175,0 h 1.05833 m -3.175,0 h 1.05833 m -3.17499,0 h 1.05833 m -3.175,0 h 1.05833 m -3.175,0 h 1.05833 m -3.17499,0 h 1.05833 m -3.175,0 h 1.05833 m -3.175,0 h 1.05833 m -3.17499,0 h 1.05833 m -3.175,0 h 1.05833 m -3.175,0 h 1.05833 m -3.17499,0 h 1.05833 m -3.175,0 h 1.05833 m -3.175,0 h 1.05833 m -3.17499,0 h 1.05833 m -3.175,0 h 1.05833 m -3.175,0 h 1.05833 m -3.17499,0 h 1.05833 m -3.175,0 h 1.05833 m -3.175,0 h 1.05833 m -3.17499,0 h 1.05833 m -3.175,0 h 1.05833 m -3.175,0 h 1.05833 m -3.17499,0 h 1.05833 m -3.175,0 h 1.05833 m -3.175,0 h 1.05833 m -3.17499,0 h 1.05833 m -3.175,0 h 1.05833 m -3.175,0 h 1.05833 m -3.17499,0 h 1.05833 m -3.175,0 h 1.05833 m -3.175,0 h 1.05833 m -3.17499,0 h 1.05833 m -3.175,0 h 1.05833 m -3.175,0 h 1.05833 m -3.17499,0 h 1.05833 m -3.175,0 h 1.05833 m -3.175,0 h 1.05833 m -3.17499,0 h 1.05833 m -3.175,0 h 1.05833 m -3.175,0 h 1.05833 m -3.17499,0 h 1.05833 m -3.175,0 h 1.05833 m -3.175,0 h 1.05833 m -3.17499,0 h 1.05833 m -3.175,0 h 1.05833 m -3.175,0 h 1.05833 m -3.17499,0 h 1.05833 m -3.175,0 h 1.05833 m -3.175,0 h 1.05833 m -3.17499,0 h 1.05833 m -3.175,0 h 1.05833 m -3.175,0 h 1.05833 m -3.17499,0 h 1.05833 m -3.175,0 h 1.05833 m -3.175,0 h 1.05833 m -3.17499,0 h 1.05833 m -3.175,0 h 1.05833 m -3.175,0 h 1.05833 m -3.17499,0 h 1.05833 m -3.175,0 h 1.05833 m -3.175,0 h 1.05833 m -3.17499,0 h 1.05833 m -3.175,0 h 1.05833 m -3.175,0 h 1.05833 m -3.17499,0 h 1.05833 m -3.175,0 h 1.05833 m -3.175,0 h 1.05833 m -3.17499,0 h 1.05833 m -3.175,0 h 1.05833 m -3.174998,0 h 1.058333 m -3.175,0 h 1.058333 m -3.174999,0 h 1.058333 m -3.175,0 h 1.058333 m -3.175,0 h 1.058333 m -3.174999,0 h 1.058333 m -3.175,0 h 1.058333 m -3.175,0 h 1.058333 m -3.174999,0 h 1.058333 m -3.175,0 h 1.058333 m -3.174999,0 h 1.058333 m -3.175,0 h 1.058333 m -3.175,0 h 1.058333 m -3.174999,0 h 1.058333 m -3.175,0 h 1.058333 m -3.175,0 h 1.058333 m -3.174999,0 h 1.058333 m -3.175,0 h 1.058333 m -3.174999,0 h 1.058333 m -3.175,0 h 1.058333 m -3.175,0 h 1.058333 m -3.174999,0 h 1.058333 m -3.175,0 h 1.058333 m -3.175,0 h 1.058333 m -3.174999,0 h 1.058333 m -3.175,0 h 1.058333 m -3.174999,0 h 1.058333 m -3.175,0 h 1.058333 m -3.175,0 h 1.058333 m -3.174999,0 h 1.058333 m -3.175,0 h 1.058333 m -3.175,0 h 1.058333 m -3.174999,0 h 1.058333 m -3.175,0 h 1.058333 m -3.174999,0 H 26.9875 m -3.175,0 h 1.058333 m -3.175,0 h 1.058333 m -3.174999,0 H 20.6375 m -3.175,0 h 1.058333 m -3.175,0 h 1.058333 m -3.174999,0 H 14.2875 m -3.175,0 h 1.058333 m -3.1749998,0 h 1.0583338 m -3.1750004,0 h 1.0583333 m -3.1749999,0 h 1.0583333 m -3.175,0 h 1.0583333 m -3.17499991,0 H 1.5875 m -1.05833331,0 H 1.5875 m 266.17083,1.05833 h 2.11667 m -6.35001,0 h 2.11667 m -6.35,0 h 2.11667 m -6.35,0 h 2.11667 m -6.35001,0 h 2.11667 m -6.35,0 h 2.11667 m -6.35,0 h 2.11667 m -6.35001,0 h 2.11667 m -6.35,0 h 2.11667 m -6.35,0 h 2.11667 m -6.35001,0 h 2.11667 m -6.35,0 h 2.11667 m -6.35,0 h 2.11667 m -6.35001,0 h 2.11667 m -6.35,0 h 2.11667 m -6.35,0 h 2.11667 m -6.35,0 h 2.11667 m -6.35001,0 h 2.11667 m -6.35,0 h 2.11667 m -6.35,0 h 2.11667 m -6.35001,0 h 2.11667 m -6.35,0 h 2.11667 m -6.35,0 h 2.11667 m -6.35001,0 h 2.11667 m -6.35,0 h 2.11667 m -6.35,0 h 2.11667 m -6.35001,0 h 2.11667 m -6.35,0 h 2.11667 m -6.35,0 h 2.11667 m -6.35001,0 h 2.11667 m -6.35,0 h 2.11667 m -6.35,0 h 2.11667 m -6.35001,0 h 2.11667 m -6.35,0 h 2.11667 m -6.35,0 h 2.11667 m -6.35001,0 h 2.11667 m -6.35,0 h 2.11667 m -6.35,0 h 2.11667 m -6.35001,0 h 2.11667 m -6.35,0 h 2.11667 m -6.350001,0 h 2.116671 m -6.350004,0 h 2.116667 m -6.350001,0 h 2.116667 m -6.35,0 h 2.116667 m -6.35,0 h 2.116667 m -6.350001,0 h 2.116667 m -6.35,0 h 2.116667 m -6.35,0 h 2.116667 m -6.35,0 H 66.675 m -6.350001,0 h 2.116667 m -6.35,0 h 2.116667 m -6.35,0 H 53.975 m -6.350001,0 h 2.116667 m -6.35,0 h 2.116667 m -6.35,0 H 41.275 m -6.350001,0 h 2.116667 m -6.35,0 h 2.116667 m -6.35,0 H 28.575 m -6.350001,0 h 2.116667 m -6.35,0 h 2.116667 m -6.35,0 H 15.875 m -6.35,0 h 2.116667 m -6.3500003,0 h 2.1166666 m -6.3499999,0 H 3.175 m -2.1166666,0 H 3.175 m 261.40833,1.05833 h 4.23333 m -12.69999,0 H 260.35 m -12.7,0 h 4.23333 m -12.7,0 h 4.23333 m -12.69999,0 H 234.95 m -12.7,0 h 4.23333 m -12.7,0 h 4.23333 m -12.69999,0 H 209.55 m -12.7,0 h 4.23333 m -12.7,0 h 4.23333 m -12.69999,0 H 184.15 m -12.7,0 h 4.23333 m -12.7,0 h 4.23333 m -12.69999,0 H 158.75 m -12.7,0 h 4.23333 m -12.7,0 h 4.23333 m -12.69999,0 H 133.35 m -12.7,0 h 4.23333 m -12.7,0 h 4.23333 m -12.69999,0 H 107.95 m -12.700001,0 h 4.233333 m -12.7,0 h 4.233333 m -12.699999,0 h 4.233333 m -12.7,0 h 4.233333 m -12.699999,0 h 4.233333 m -12.7,0 h 4.233333 m -12.699999,0 h 4.233333 m -12.7,0 h 4.233333 m -12.699999,0 H 31.75 m -12.7,0 h 4.233333 m -12.7,0 h 4.233334 m -12.7000003,0 h 4.2333334 m -4.2333334,0 H 6.3500001 M 258.23333,274.51041 H 266.7 m -25.40001,0 h 8.46667 m -25.4,0 h 8.46667 m -25.4,0 H 215.9 m -25.40001,0 h 8.46667 m -25.4,0 h 8.46667 m -25.4,0 H 165.1 m -25.40001,0 h 8.46667 m -25.4,0 h 8.46667 m -25.4,0 H 114.3 m -25.400002,0 h 8.466667 m -25.4,0 h 8.466667 m -25.4,0 h 8.466667 m -25.4,0 h 8.466667 m -25.4,0 h 8.466667 m -25.3999997,0 H 12.7 m -8.4666667,0 H 12.7 m 232.83333,1.05836 h 16.93333 m -50.79999,0 H 228.6 m -50.8,0 h 16.93333 m -50.8,0 h 16.93333 m -50.79999,0 H 127 m -50.8,0 h 16.933334 m -50.800001,0 h 16.933334 m -50.8000003,0 H 25.4 m 194.73333,1.05831 h 33.86666 m -101.59999,0 h 33.86666 m -101.599993,-2e-5 h 33.866663 m -101.599997,0 H 50.8 m 118.53333,1.05832 h 67.73334 m -203.200003,0 H 101.6 m -33.866667,1.05836 H 203.2 m -67.73333,1.05832 h 135.46667"
       copytype="single_stretched"
       prop_scale="1"
       scale_y_rel="false"
       spacing="0"
       normal_offset="0"
       tang_offset="0"
       prop_units="false"
       vertical_pattern="false"
       fuse_tolerance="0" />
    <inkscape:path-effect
       effect="skeletal"
       id="path-effect8130"
       is_visible="true"
       pattern="m 270.13957,270.27709 h 0.52917 m -1.5875,0 h 0.52917 m -1.58751,0 h 0.52917 m -1.5875,0 h 0.52917 m -1.5875,0 h 0.52917 m -1.58751,0 h 0.52917 m -1.5875,0 h 0.52917 m -1.5875,0 h 0.52917 m -1.5875,0 h 0.52917 m -1.58751,0 h 0.52917 m -1.5875,0 h 0.52917 m -1.5875,0 h 0.52917 m -1.58751,0 h 0.52917 m -1.5875,0 h 0.52917 m -1.5875,0 h 0.52917 m -1.58751,0 h 0.52917 m -1.5875,0 h 0.52917 m -1.5875,0 h 0.52917 m -1.58751,0 h 0.52917 m -1.5875,0 h 0.52917 m -1.5875,0 h 0.52917 m -1.58751,0 h 0.52917 m -1.5875,0 h 0.52917 m -1.5875,0 h 0.52917 m -1.58751,0 h 0.52917 m -1.5875,0 h 0.52917 m -1.5875,0 h 0.52917 m -1.58751,0 h 0.52917 m -1.5875,0 h 0.52917 m -1.5875,0 h 0.52917 m -1.58751,0 h 0.52917 m -1.5875,0 h 0.52917 m -1.5875,0 h 0.52917 m -1.58751,0 h 0.52917 m -1.5875,0 h 0.52917 m -1.5875,0 h 0.52917 m -1.58751,0 h 0.52917 m -1.5875,0 h 0.52917 m -1.5875,0 h 0.52917 m -1.58751,0 h 0.52917 m -1.5875,0 h 0.52917 m -1.5875,0 h 0.52917 m -1.58751,0 h 0.52917 m -1.5875,0 h 0.52917 m -1.5875,0 h 0.52917 m -1.58751,0 h 0.52917 m -1.5875,0 h 0.52917 m -1.5875,0 h 0.52917 m -1.58751,0 h 0.52917 m -1.5875,0 h 0.52917 m -1.5875,0 h 0.52917 m -1.58751,0 h 0.52917 m -1.5875,0 h 0.52917 m -1.5875,0 h 0.52917 m -1.58751,0 h 0.52917 m -1.5875,0 h 0.52917 m -1.5875,0 h 0.52917 m -1.58751,0 h 0.52917 m -1.5875,0 h 0.52917 m -1.5875,0 h 0.52917 m -1.58751,0 h 0.52917 m -1.5875,0 h 0.52917 m -1.5875,0 h 0.52917 m -1.58751,0 h 0.52917 m -1.5875,0 h 0.52917 m -1.5875,0 h 0.52917 m -1.58751,0 h 0.52917 m -1.5875,0 h 0.52917 m -1.5875,0 h 0.52917 m -1.58751,0 h 0.52917 m -1.5875,0 h 0.52917 m -1.5875,0 h 0.52917 m -1.58751,0 h 0.52917 m -1.5875,0 h 0.52917 m -1.5875,0 h 0.52917 m -1.58751,0 h 0.52917 m -1.5875,0 h 0.52917 m -1.5875,0 h 0.52917 m -1.58751,0 h 0.52917 m -1.5875,0 h 0.52917 m -1.5875,0 h 0.52917 m -1.58751,0 h 0.52917 m -1.5875,0 h 0.52917 m -1.5875,0 h 0.52917 m -1.58751,0 h 0.52917 m -1.5875,0 h 0.52917 m -1.5875,0 h 0.52917 m -1.58751,0 h 0.52917 m -1.5875,0 h 0.52917 m -1.5875,0 h 0.52917 m -1.58751,0 h 0.52917 m -1.5875,0 h 0.52917 m -1.5875,0 h 0.52917 m -1.58751,0 h 0.52917 m -1.5875,0 h 0.52917 m -1.5875,0 h 0.52917 m -1.58751,0 h 0.52917 m -1.5875,0 h 0.52917 m -1.5875,0 h 0.52917 m -1.58751,0 h 0.52917 m -1.5875,0 h 0.52917 m -1.5875,0 h 0.52917 m -1.58751,0 h 0.52917 m -1.5875,0 h 0.52917 m -1.5875,0 h 0.52917 m -1.58751,0 h 0.52917 m -1.5875,0 h 0.52917 m -1.5875,0 h 0.52917 m -1.5875,0 h 0.52917 m -1.58751,0 h 0.52917 m -1.5875,0 h 0.52917 m -1.5875,0 h 0.52917 m -1.58751,0 h 0.52917 m -1.5875,0 h 0.52917 m -1.5875,0 h 0.52917 m -1.58751,0 h 0.52917 m -1.5875,0 h 0.52917 m -1.5875,0 h 0.52917 m -1.58751,0 h 0.52917 m -1.5875,0 h 0.52917 m -1.5875,0 h 0.52917 m -1.58751,0 h 0.52917 m -1.5875,0 h 0.52917 m -1.5875,0 h 0.52917 m -1.58751,0 h 0.52917 m -1.5875,0 h 0.52917 m -1.5875,0 h 0.52917 m -1.58751,0 h 0.52917 m -1.5875,0 h 0.52917 m -1.5875,0 h 0.52917 m -1.58751,0 h 0.52917 m -1.5875,0 h 0.52917 m -1.5875,0 h 0.52917 m -1.58751,0 h 0.52917 m -1.5875,0 h 0.52917 m -1.5875,0 h 0.52917 m -1.58751,0 h 0.52917 m -1.5875,0 h 0.52917 m -1.5875,0 h 0.52917 m -1.58751,0 h 0.52917 m -1.5875,0 h 0.52917 m -1.5875,0 h 0.52917 m -1.58751,0 h 0.52917 m -1.5875,0 h 0.52917 m -1.5875,0 h 0.52917 m -1.58751,0 h 0.52917 m -1.5875,0 h 0.52917 m -1.5875,0 h 0.52917 m -1.58751,0 h 0.52917 m -1.5875,0 h 0.52917 m -1.5875,0 h 0.52917 m -1.58751,0 h 0.52917 m -1.5875,0 h 0.52917 m -1.5875,0 h 0.52917 m -1.58751,0 h 0.52917 m -1.5875,0 h 0.52917 m -1.5875,0 h 0.52917 m -1.58751,0 h 0.52917 m -1.5875,0 h 0.52917 m -1.5875,0 h 0.52917 m -1.58751,0 h 0.52917 m -1.587497,0 h 0.529167 m -1.5875,0 h 0.529167 m -1.5875,0 h 0.529167 m -1.587501,0 h 0.529167 m -1.5875,0 h 0.529167 m -1.5875,0 h 0.529167 m -1.587501,0 h 0.529167 m -1.5875,0 h 0.529167 m -1.5875,0 h 0.529167 m -1.587501,0 h 0.529167 m -1.5875,0 h 0.529167 m -1.5875,0 h 0.529167 m -1.5875,0 h 0.529167 m -1.587501,0 h 0.529167 m -1.5875,0 h 0.529167 m -1.5875,0 h 0.529167 m -1.587501,0 h 0.529167 m -1.5875,0 h 0.529167 m -1.5875,0 h 0.529167 m -1.587501,0 h 0.529167 m -1.5875,0 h 0.529167 m -1.5875,0 h 0.529167 m -1.5875,0 h 0.529167 m -1.587501,0 h 0.529167 m -1.5875,0 h 0.529167 m -1.5875,0 h 0.529167 m -1.587501,0 h 0.529167 m -1.5875,0 h 0.529167 m -1.5875,0 h 0.529167 m -1.587501,0 h 0.529167 m -1.5875,0 h 0.529167 m -1.5875,0 h 0.529167 m -1.5875,0 h 0.529167 m -1.587501,0 h 0.529167 m -1.5875,0 h 0.529167 m -1.5875,0 h 0.529167 m -1.587501,0 h 0.529167 m -1.5875,0 h 0.529167 m -1.5875,0 h 0.529167 m -1.587501,0 h 0.529167 m -1.5875,0 h 0.529167 m -1.5875,0 h 0.529167 m -1.5875,0 h 0.529167 m -1.587501,0 h 0.529167 m -1.5875,0 h 0.529167 m -1.5875,0 h 0.529167 m -1.587501,0 h 0.529167 m -1.5875,0 h 0.529167 m -1.5875,0 h 0.529167 m -1.587501,0 h 0.529167 m -1.5875,0 h 0.529167 m -1.5875,0 h 0.529167 m -1.5875,0 h 0.529167 m -1.587501,0 h 0.529167 m -1.5875,0 h 0.529167 m -1.5875,0 h 0.529167 m -1.587501,0 h 0.529167 m -1.5875,0 h 0.529167 m -1.5875,0 h 0.529167 m -1.587501,0 h 0.529167 m -1.5875,0 h 0.529167 m -1.5875,0 h 0.529167 m -1.5875,0 h 0.529167 m -1.587501,0 h 0.529167 m -1.5875,0 h 0.529167 m -1.5875,0 h 0.529167 m -1.587501,0 h 0.529167 m -1.5875,0 h 0.529167 m -1.5875,0 h 0.529167 m -1.587501,0 h 0.529167 m -1.5875,0 h 0.529167 m -1.5875,0 h 0.529167 m -1.5875,0 h 0.529167 m -1.587501,0 h 0.529167 m -1.5875,0 h 0.529167 m -1.5875,0 h 0.529167 m -1.587501,0 h 0.529167 m -1.5875,0 h 0.529167 m -1.5875,0 h 0.529167 m -1.5875,0 h 0.529167 m -1.587501,0 h 0.529167 m -1.5875,0 h 0.529167 m -1.5875,0 h 0.529167 m -1.587501,0 h 0.529167 m -1.5875,0 h 0.529167 m -1.5874999,0 H 10.31875 m -1.5875002,0 h 0.5291666 m -1.5875,0 h 0.5291667 m -1.5875,0 h 0.5291667 m -1.5875,0 h 0.5291667 m -1.5875,0 h 0.5291667 m -1.5874999,0 h 0.5291666 m -1.5874999,0 h 0.5291666 m -1.5875,0 h 0.5291667 m -1.58749995,0 H 0.79375 m -0.52916665,0 H 0.79375 m 268.55208,1.05833 h 1.05833 m -3.175,0 h 1.05833 m -3.17499,0 h 1.05833 m -3.175,0 h 1.05833 m -3.17499,0 h 1.05833 m -3.175,0 h 1.05833 m -3.175,0 h 1.05833 m -3.17499,0 h 1.05833 m -3.175,0 h 1.05833 m -3.175,0 h 1.05833 m -3.17499,0 h 1.05833 m -3.175,0 h 1.05833 m -3.175,0 h 1.05833 m -3.17499,0 h 1.05833 m -3.175,0 h 1.05833 m -3.175,0 h 1.05833 m -3.17499,0 h 1.05833 m -3.175,0 h 1.05833 m -3.175,0 h 1.05833 m -3.17499,0 h 1.05833 m -3.175,0 h 1.05833 m -3.175,0 h 1.05833 m -3.17499,0 h 1.05833 m -3.175,0 h 1.05833 m -3.175,0 h 1.05833 m -3.17499,0 h 1.05833 m -3.175,0 h 1.05833 m -3.175,0 h 1.05833 m -3.17499,0 h 1.05833 m -3.175,0 h 1.05833 m -3.175,0 h 1.05833 m -3.17499,0 h 1.05833 m -3.175,0 h 1.05833 m -3.175,0 h 1.05833 m -3.17499,0 h 1.05833 m -3.175,0 h 1.05833 m -3.175,0 h 1.05833 m -3.17499,0 h 1.05833 m -3.175,0 h 1.05833 m -3.175,0 h 1.05833 m -3.17499,0 h 1.05833 m -3.175,0 h 1.05833 m -3.175,0 h 1.05833 m -3.17499,0 h 1.05833 m -3.175,0 h 1.05833 m -3.175,0 h 1.05833 m -3.17499,0 h 1.05833 m -3.175,0 h 1.05833 m -3.175,0 h 1.05833 m -3.17499,0 h 1.05833 m -3.175,0 h 1.05833 m -3.175,0 h 1.05833 m -3.17499,0 h 1.05833 m -3.175,0 h 1.05833 m -3.175,0 h 1.05833 m -3.17499,0 h 1.05833 m -3.175,0 h 1.05833 m -3.175,0 h 1.05833 m -3.17499,0 h 1.05833 m -3.175,0 h 1.05833 m -3.175,0 h 1.05833 m -3.17499,0 h 1.05833 m -3.175,0 h 1.05833 m -3.175,0 h 1.05833 m -3.17499,0 h 1.05833 m -3.175,0 h 1.05833 m -3.175,0 h 1.05833 m -3.17499,0 h 1.05833 m -3.175,0 h 1.05833 m -3.175,0 h 1.05833 m -3.17499,0 h 1.05833 m -3.175,0 h 1.05833 m -3.175,0 h 1.05833 m -3.17499,0 h 1.05833 m -3.175,0 h 1.05833 m -3.175,0 h 1.05833 m -3.17499,0 h 1.05833 m -3.175,0 h 1.05833 m -3.175,0 h 1.05833 m -3.17499,0 h 1.05833 m -3.175,0 h 1.05833 m -3.174998,0 h 1.058333 m -3.175,0 h 1.058333 m -3.174999,0 h 1.058333 m -3.175,0 h 1.058333 m -3.175,0 h 1.058333 m -3.174999,0 h 1.058333 m -3.175,0 h 1.058333 m -3.175,0 h 1.058333 m -3.174999,0 h 1.058333 m -3.175,0 h 1.058333 m -3.174999,0 h 1.058333 m -3.175,0 h 1.058333 m -3.175,0 h 1.058333 m -3.174999,0 h 1.058333 m -3.175,0 h 1.058333 m -3.175,0 h 1.058333 m -3.174999,0 h 1.058333 m -3.175,0 h 1.058333 m -3.174999,0 h 1.058333 m -3.175,0 h 1.058333 m -3.175,0 h 1.058333 m -3.174999,0 h 1.058333 m -3.175,0 h 1.058333 m -3.175,0 h 1.058333 m -3.174999,0 h 1.058333 m -3.175,0 h 1.058333 m -3.174999,0 h 1.058333 m -3.175,0 h 1.058333 m -3.175,0 h 1.058333 m -3.174999,0 h 1.058333 m -3.175,0 h 1.058333 m -3.175,0 h 1.058333 m -3.174999,0 h 1.058333 m -3.175,0 h 1.058333 m -3.174999,0 H 26.9875 m -3.175,0 h 1.058333 m -3.175,0 h 1.058333 m -3.174999,0 H 20.6375 m -3.175,0 h 1.058333 m -3.175,0 h 1.058333 m -3.174999,0 H 14.2875 m -3.175,0 h 1.058333 m -3.1749998,0 h 1.0583338 m -3.1750004,0 h 1.0583333 m -3.1749999,0 h 1.0583333 m -3.175,0 h 1.0583333 m -3.17499991,0 H 1.5875 m -1.05833331,0 H 1.5875 m 266.17083,1.05833 h 2.11667 m -6.35001,0 h 2.11667 m -6.35,0 h 2.11667 m -6.35,0 h 2.11667 m -6.35001,0 h 2.11667 m -6.35,0 h 2.11667 m -6.35,0 h 2.11667 m -6.35001,0 h 2.11667 m -6.35,0 h 2.11667 m -6.35,0 h 2.11667 m -6.35001,0 h 2.11667 m -6.35,0 h 2.11667 m -6.35,0 h 2.11667 m -6.35001,0 h 2.11667 m -6.35,0 h 2.11667 m -6.35,0 h 2.11667 m -6.35,0 h 2.11667 m -6.35001,0 h 2.11667 m -6.35,0 h 2.11667 m -6.35,0 h 2.11667 m -6.35001,0 h 2.11667 m -6.35,0 h 2.11667 m -6.35,0 h 2.11667 m -6.35001,0 h 2.11667 m -6.35,0 h 2.11667 m -6.35,0 h 2.11667 m -6.35001,0 h 2.11667 m -6.35,0 h 2.11667 m -6.35,0 h 2.11667 m -6.35001,0 h 2.11667 m -6.35,0 h 2.11667 m -6.35,0 h 2.11667 m -6.35001,0 h 2.11667 m -6.35,0 h 2.11667 m -6.35,0 h 2.11667 m -6.35001,0 h 2.11667 m -6.35,0 h 2.11667 m -6.35,0 h 2.11667 m -6.35001,0 h 2.11667 m -6.35,0 h 2.11667 m -6.350001,0 h 2.116671 m -6.350004,0 h 2.116667 m -6.350001,0 h 2.116667 m -6.35,0 h 2.116667 m -6.35,0 h 2.116667 m -6.350001,0 h 2.116667 m -6.35,0 h 2.116667 m -6.35,0 h 2.116667 m -6.35,0 H 66.675 m -6.350001,0 h 2.116667 m -6.35,0 h 2.116667 m -6.35,0 H 53.975 m -6.350001,0 h 2.116667 m -6.35,0 h 2.116667 m -6.35,0 H 41.275 m -6.350001,0 h 2.116667 m -6.35,0 h 2.116667 m -6.35,0 H 28.575 m -6.350001,0 h 2.116667 m -6.35,0 h 2.116667 m -6.35,0 H 15.875 m -6.35,0 h 2.116667 m -6.3500003,0 h 2.1166666 m -6.3499999,0 H 3.175 m -2.1166666,0 H 3.175 m 261.40833,1.05833 h 4.23333 m -12.69999,0 H 260.35 m -12.7,0 h 4.23333 m -12.7,0 h 4.23333 m -12.69999,0 H 234.95 m -12.7,0 h 4.23333 m -12.7,0 h 4.23333 m -12.69999,0 H 209.55 m -12.7,0 h 4.23333 m -12.7,0 h 4.23333 m -12.69999,0 H 184.15 m -12.7,0 h 4.23333 m -12.7,0 h 4.23333 m -12.69999,0 H 158.75 m -12.7,0 h 4.23333 m -12.7,0 h 4.23333 m -12.69999,0 H 133.35 m -12.7,0 h 4.23333 m -12.7,0 h 4.23333 m -12.69999,0 H 107.95 m -12.700001,0 h 4.233333 m -12.7,0 h 4.233333 m -12.699999,0 h 4.233333 m -12.7,0 h 4.233333 m -12.699999,0 h 4.233333 m -12.7,0 h 4.233333 m -12.699999,0 h 4.233333 m -12.7,0 h 4.233333 m -12.699999,0 H 31.75 m -12.7,0 h 4.233333 m -12.7,0 h 4.233334 m -12.7000003,0 h 4.2333334 m -4.2333334,0 H 6.3500001 M 258.23333,274.51041 H 266.7 m -25.40001,0 h 8.46667 m -25.4,0 h 8.46667 m -25.4,0 H 215.9 m -25.40001,0 h 8.46667 m -25.4,0 h 8.46667 m -25.4,0 H 165.1 m -25.40001,0 h 8.46667 m -25.4,0 h 8.46667 m -25.4,0 H 114.3 m -25.400002,0 h 8.466667 m -25.4,0 h 8.466667 m -25.4,0 h 8.466667 m -25.4,0 h 8.466667 m -25.4,0 h 8.466667 m -25.3999997,0 H 12.7 m -8.4666667,0 H 12.7 m 232.83333,1.05836 h 16.93333 m -50.79999,0 H 228.6 m -50.8,0 h 16.93333 m -50.8,0 h 16.93333 m -50.79999,0 H 127 m -50.8,0 h 16.933334 m -50.800001,0 h 16.933334 m -50.8000003,0 H 25.4 m 194.73333,1.05831 h 33.86666 m -101.59999,0 h 33.86666 m -101.599993,-2e-5 h 33.866663 m -101.599997,0 H 50.8 m 118.53333,1.05832 h 67.73334 m -203.200003,0 H 101.6 m -33.866667,1.05836 H 203.2 m -67.73333,1.05832 h 135.46667"
       copytype="single_stretched"
       prop_scale="1"
       scale_y_rel="false"
       spacing="0"
       normal_offset="0"
       tang_offset="0"
       prop_units="false"
       vertical_pattern="false"
       fuse_tolerance="0" />
    <inkscape:path-effect
       effect="skeletal"
       id="path-effect8121"
       is_visible="true"
       pattern="m 270.13957,270.27709 h 0.52917 m -1.5875,0 h 0.52917 m -1.58751,0 h 0.52917 m -1.5875,0 h 0.52917 m -1.5875,0 h 0.52917 m -1.58751,0 h 0.52917 m -1.5875,0 h 0.52917 m -1.5875,0 h 0.52917 m -1.5875,0 h 0.52917 m -1.58751,0 h 0.52917 m -1.5875,0 h 0.52917 m -1.5875,0 h 0.52917 m -1.58751,0 h 0.52917 m -1.5875,0 h 0.52917 m -1.5875,0 h 0.52917 m -1.58751,0 h 0.52917 m -1.5875,0 h 0.52917 m -1.5875,0 h 0.52917 m -1.58751,0 h 0.52917 m -1.5875,0 h 0.52917 m -1.5875,0 h 0.52917 m -1.58751,0 h 0.52917 m -1.5875,0 h 0.52917 m -1.5875,0 h 0.52917 m -1.58751,0 h 0.52917 m -1.5875,0 h 0.52917 m -1.5875,0 h 0.52917 m -1.58751,0 h 0.52917 m -1.5875,0 h 0.52917 m -1.5875,0 h 0.52917 m -1.58751,0 h 0.52917 m -1.5875,0 h 0.52917 m -1.5875,0 h 0.52917 m -1.58751,0 h 0.52917 m -1.5875,0 h 0.52917 m -1.5875,0 h 0.52917 m -1.58751,0 h 0.52917 m -1.5875,0 h 0.52917 m -1.5875,0 h 0.52917 m -1.58751,0 h 0.52917 m -1.5875,0 h 0.52917 m -1.5875,0 h 0.52917 m -1.58751,0 h 0.52917 m -1.5875,0 h 0.52917 m -1.5875,0 h 0.52917 m -1.58751,0 h 0.52917 m -1.5875,0 h 0.52917 m -1.5875,0 h 0.52917 m -1.58751,0 h 0.52917 m -1.5875,0 h 0.52917 m -1.5875,0 h 0.52917 m -1.58751,0 h 0.52917 m -1.5875,0 h 0.52917 m -1.5875,0 h 0.52917 m -1.58751,0 h 0.52917 m -1.5875,0 h 0.52917 m -1.5875,0 h 0.52917 m -1.58751,0 h 0.52917 m -1.5875,0 h 0.52917 m -1.5875,0 h 0.52917 m -1.58751,0 h 0.52917 m -1.5875,0 h 0.52917 m -1.5875,0 h 0.52917 m -1.58751,0 h 0.52917 m -1.5875,0 h 0.52917 m -1.5875,0 h 0.52917 m -1.58751,0 h 0.52917 m -1.5875,0 h 0.52917 m -1.5875,0 h 0.52917 m -1.58751,0 h 0.52917 m -1.5875,0 h 0.52917 m -1.5875,0 h 0.52917 m -1.58751,0 h 0.52917 m -1.5875,0 h 0.52917 m -1.5875,0 h 0.52917 m -1.58751,0 h 0.52917 m -1.5875,0 h 0.52917 m -1.5875,0 h 0.52917 m -1.58751,0 h 0.52917 m -1.5875,0 h 0.52917 m -1.5875,0 h 0.52917 m -1.58751,0 h 0.52917 m -1.5875,0 h 0.52917 m -1.5875,0 h 0.52917 m -1.58751,0 h 0.52917 m -1.5875,0 h 0.52917 m -1.5875,0 h 0.52917 m -1.58751,0 h 0.52917 m -1.5875,0 h 0.52917 m -1.5875,0 h 0.52917 m -1.58751,0 h 0.52917 m -1.5875,0 h 0.52917 m -1.5875,0 h 0.52917 m -1.58751,0 h 0.52917 m -1.5875,0 h 0.52917 m -1.5875,0 h 0.52917 m -1.58751,0 h 0.52917 m -1.5875,0 h 0.52917 m -1.5875,0 h 0.52917 m -1.58751,0 h 0.52917 m -1.5875,0 h 0.52917 m -1.5875,0 h 0.52917 m -1.58751,0 h 0.52917 m -1.5875,0 h 0.52917 m -1.5875,0 h 0.52917 m -1.58751,0 h 0.52917 m -1.5875,0 h 0.52917 m -1.5875,0 h 0.52917 m -1.5875,0 h 0.52917 m -1.58751,0 h 0.52917 m -1.5875,0 h 0.52917 m -1.5875,0 h 0.52917 m -1.58751,0 h 0.52917 m -1.5875,0 h 0.52917 m -1.5875,0 h 0.52917 m -1.58751,0 h 0.52917 m -1.5875,0 h 0.52917 m -1.5875,0 h 0.52917 m -1.58751,0 h 0.52917 m -1.5875,0 h 0.52917 m -1.5875,0 h 0.52917 m -1.58751,0 h 0.52917 m -1.5875,0 h 0.52917 m -1.5875,0 h 0.52917 m -1.58751,0 h 0.52917 m -1.5875,0 h 0.52917 m -1.5875,0 h 0.52917 m -1.58751,0 h 0.52917 m -1.5875,0 h 0.52917 m -1.5875,0 h 0.52917 m -1.58751,0 h 0.52917 m -1.5875,0 h 0.52917 m -1.5875,0 h 0.52917 m -1.58751,0 h 0.52917 m -1.5875,0 h 0.52917 m -1.5875,0 h 0.52917 m -1.58751,0 h 0.52917 m -1.5875,0 h 0.52917 m -1.5875,0 h 0.52917 m -1.58751,0 h 0.52917 m -1.5875,0 h 0.52917 m -1.5875,0 h 0.52917 m -1.58751,0 h 0.52917 m -1.5875,0 h 0.52917 m -1.5875,0 h 0.52917 m -1.58751,0 h 0.52917 m -1.5875,0 h 0.52917 m -1.5875,0 h 0.52917 m -1.58751,0 h 0.52917 m -1.5875,0 h 0.52917 m -1.5875,0 h 0.52917 m -1.58751,0 h 0.52917 m -1.5875,0 h 0.52917 m -1.5875,0 h 0.52917 m -1.58751,0 h 0.52917 m -1.5875,0 h 0.52917 m -1.5875,0 h 0.52917 m -1.58751,0 h 0.52917 m -1.5875,0 h 0.52917 m -1.5875,0 h 0.52917 m -1.58751,0 h 0.52917 m -1.587497,0 h 0.529167 m -1.5875,0 h 0.529167 m -1.5875,0 h 0.529167 m -1.587501,0 h 0.529167 m -1.5875,0 h 0.529167 m -1.5875,0 h 0.529167 m -1.587501,0 h 0.529167 m -1.5875,0 h 0.529167 m -1.5875,0 h 0.529167 m -1.587501,0 h 0.529167 m -1.5875,0 h 0.529167 m -1.5875,0 h 0.529167 m -1.5875,0 h 0.529167 m -1.587501,0 h 0.529167 m -1.5875,0 h 0.529167 m -1.5875,0 h 0.529167 m -1.587501,0 h 0.529167 m -1.5875,0 h 0.529167 m -1.5875,0 h 0.529167 m -1.587501,0 h 0.529167 m -1.5875,0 h 0.529167 m -1.5875,0 h 0.529167 m -1.5875,0 h 0.529167 m -1.587501,0 h 0.529167 m -1.5875,0 h 0.529167 m -1.5875,0 h 0.529167 m -1.587501,0 h 0.529167 m -1.5875,0 h 0.529167 m -1.5875,0 h 0.529167 m -1.587501,0 h 0.529167 m -1.5875,0 h 0.529167 m -1.5875,0 h 0.529167 m -1.5875,0 h 0.529167 m -1.587501,0 h 0.529167 m -1.5875,0 h 0.529167 m -1.5875,0 h 0.529167 m -1.587501,0 h 0.529167 m -1.5875,0 h 0.529167 m -1.5875,0 h 0.529167 m -1.587501,0 h 0.529167 m -1.5875,0 h 0.529167 m -1.5875,0 h 0.529167 m -1.5875,0 h 0.529167 m -1.587501,0 h 0.529167 m -1.5875,0 h 0.529167 m -1.5875,0 h 0.529167 m -1.587501,0 h 0.529167 m -1.5875,0 h 0.529167 m -1.5875,0 h 0.529167 m -1.587501,0 h 0.529167 m -1.5875,0 h 0.529167 m -1.5875,0 h 0.529167 m -1.5875,0 h 0.529167 m -1.587501,0 h 0.529167 m -1.5875,0 h 0.529167 m -1.5875,0 h 0.529167 m -1.587501,0 h 0.529167 m -1.5875,0 h 0.529167 m -1.5875,0 h 0.529167 m -1.587501,0 h 0.529167 m -1.5875,0 h 0.529167 m -1.5875,0 h 0.529167 m -1.5875,0 h 0.529167 m -1.587501,0 h 0.529167 m -1.5875,0 h 0.529167 m -1.5875,0 h 0.529167 m -1.587501,0 h 0.529167 m -1.5875,0 h 0.529167 m -1.5875,0 h 0.529167 m -1.587501,0 h 0.529167 m -1.5875,0 h 0.529167 m -1.5875,0 h 0.529167 m -1.5875,0 h 0.529167 m -1.587501,0 h 0.529167 m -1.5875,0 h 0.529167 m -1.5875,0 h 0.529167 m -1.587501,0 h 0.529167 m -1.5875,0 h 0.529167 m -1.5875,0 h 0.529167 m -1.5875,0 h 0.529167 m -1.587501,0 h 0.529167 m -1.5875,0 h 0.529167 m -1.5875,0 h 0.529167 m -1.587501,0 h 0.529167 m -1.5875,0 h 0.529167 m -1.5874999,0 H 10.31875 m -1.5875002,0 h 0.5291666 m -1.5875,0 h 0.5291667 m -1.5875,0 h 0.5291667 m -1.5875,0 h 0.5291667 m -1.5875,0 h 0.5291667 m -1.5874999,0 h 0.5291666 m -1.5874999,0 h 0.5291666 m -1.5875,0 h 0.5291667 m -1.58749995,0 H 0.79375 m -0.52916665,0 H 0.79375 m 268.55208,1.05833 h 1.05833 m -3.175,0 h 1.05833 m -3.17499,0 h 1.05833 m -3.175,0 h 1.05833 m -3.17499,0 h 1.05833 m -3.175,0 h 1.05833 m -3.175,0 h 1.05833 m -3.17499,0 h 1.05833 m -3.175,0 h 1.05833 m -3.175,0 h 1.05833 m -3.17499,0 h 1.05833 m -3.175,0 h 1.05833 m -3.175,0 h 1.05833 m -3.17499,0 h 1.05833 m -3.175,0 h 1.05833 m -3.175,0 h 1.05833 m -3.17499,0 h 1.05833 m -3.175,0 h 1.05833 m -3.175,0 h 1.05833 m -3.17499,0 h 1.05833 m -3.175,0 h 1.05833 m -3.175,0 h 1.05833 m -3.17499,0 h 1.05833 m -3.175,0 h 1.05833 m -3.175,0 h 1.05833 m -3.17499,0 h 1.05833 m -3.175,0 h 1.05833 m -3.175,0 h 1.05833 m -3.17499,0 h 1.05833 m -3.175,0 h 1.05833 m -3.175,0 h 1.05833 m -3.17499,0 h 1.05833 m -3.175,0 h 1.05833 m -3.175,0 h 1.05833 m -3.17499,0 h 1.05833 m -3.175,0 h 1.05833 m -3.175,0 h 1.05833 m -3.17499,0 h 1.05833 m -3.175,0 h 1.05833 m -3.175,0 h 1.05833 m -3.17499,0 h 1.05833 m -3.175,0 h 1.05833 m -3.175,0 h 1.05833 m -3.17499,0 h 1.05833 m -3.175,0 h 1.05833 m -3.175,0 h 1.05833 m -3.17499,0 h 1.05833 m -3.175,0 h 1.05833 m -3.175,0 h 1.05833 m -3.17499,0 h 1.05833 m -3.175,0 h 1.05833 m -3.175,0 h 1.05833 m -3.17499,0 h 1.05833 m -3.175,0 h 1.05833 m -3.175,0 h 1.05833 m -3.17499,0 h 1.05833 m -3.175,0 h 1.05833 m -3.175,0 h 1.05833 m -3.17499,0 h 1.05833 m -3.175,0 h 1.05833 m -3.175,0 h 1.05833 m -3.17499,0 h 1.05833 m -3.175,0 h 1.05833 m -3.175,0 h 1.05833 m -3.17499,0 h 1.05833 m -3.175,0 h 1.05833 m -3.175,0 h 1.05833 m -3.17499,0 h 1.05833 m -3.175,0 h 1.05833 m -3.175,0 h 1.05833 m -3.17499,0 h 1.05833 m -3.175,0 h 1.05833 m -3.175,0 h 1.05833 m -3.17499,0 h 1.05833 m -3.175,0 h 1.05833 m -3.175,0 h 1.05833 m -3.17499,0 h 1.05833 m -3.175,0 h 1.05833 m -3.175,0 h 1.05833 m -3.17499,0 h 1.05833 m -3.175,0 h 1.05833 m -3.174998,0 h 1.058333 m -3.175,0 h 1.058333 m -3.174999,0 h 1.058333 m -3.175,0 h 1.058333 m -3.175,0 h 1.058333 m -3.174999,0 h 1.058333 m -3.175,0 h 1.058333 m -3.175,0 h 1.058333 m -3.174999,0 h 1.058333 m -3.175,0 h 1.058333 m -3.174999,0 h 1.058333 m -3.175,0 h 1.058333 m -3.175,0 h 1.058333 m -3.174999,0 h 1.058333 m -3.175,0 h 1.058333 m -3.175,0 h 1.058333 m -3.174999,0 h 1.058333 m -3.175,0 h 1.058333 m -3.174999,0 h 1.058333 m -3.175,0 h 1.058333 m -3.175,0 h 1.058333 m -3.174999,0 h 1.058333 m -3.175,0 h 1.058333 m -3.175,0 h 1.058333 m -3.174999,0 h 1.058333 m -3.175,0 h 1.058333 m -3.174999,0 h 1.058333 m -3.175,0 h 1.058333 m -3.175,0 h 1.058333 m -3.174999,0 h 1.058333 m -3.175,0 h 1.058333 m -3.175,0 h 1.058333 m -3.174999,0 h 1.058333 m -3.175,0 h 1.058333 m -3.174999,0 H 26.9875 m -3.175,0 h 1.058333 m -3.175,0 h 1.058333 m -3.174999,0 H 20.6375 m -3.175,0 h 1.058333 m -3.175,0 h 1.058333 m -3.174999,0 H 14.2875 m -3.175,0 h 1.058333 m -3.1749998,0 h 1.0583338 m -3.1750004,0 h 1.0583333 m -3.1749999,0 h 1.0583333 m -3.175,0 h 1.0583333 m -3.17499991,0 H 1.5875 m -1.05833331,0 H 1.5875 m 266.17083,1.05833 h 2.11667 m -6.35001,0 h 2.11667 m -6.35,0 h 2.11667 m -6.35,0 h 2.11667 m -6.35001,0 h 2.11667 m -6.35,0 h 2.11667 m -6.35,0 h 2.11667 m -6.35001,0 h 2.11667 m -6.35,0 h 2.11667 m -6.35,0 h 2.11667 m -6.35001,0 h 2.11667 m -6.35,0 h 2.11667 m -6.35,0 h 2.11667 m -6.35001,0 h 2.11667 m -6.35,0 h 2.11667 m -6.35,0 h 2.11667 m -6.35,0 h 2.11667 m -6.35001,0 h 2.11667 m -6.35,0 h 2.11667 m -6.35,0 h 2.11667 m -6.35001,0 h 2.11667 m -6.35,0 h 2.11667 m -6.35,0 h 2.11667 m -6.35001,0 h 2.11667 m -6.35,0 h 2.11667 m -6.35,0 h 2.11667 m -6.35001,0 h 2.11667 m -6.35,0 h 2.11667 m -6.35,0 h 2.11667 m -6.35001,0 h 2.11667 m -6.35,0 h 2.11667 m -6.35,0 h 2.11667 m -6.35001,0 h 2.11667 m -6.35,0 h 2.11667 m -6.35,0 h 2.11667 m -6.35001,0 h 2.11667 m -6.35,0 h 2.11667 m -6.35,0 h 2.11667 m -6.35001,0 h 2.11667 m -6.35,0 h 2.11667 m -6.350001,0 h 2.116671 m -6.350004,0 h 2.116667 m -6.350001,0 h 2.116667 m -6.35,0 h 2.116667 m -6.35,0 h 2.116667 m -6.350001,0 h 2.116667 m -6.35,0 h 2.116667 m -6.35,0 h 2.116667 m -6.35,0 H 66.675 m -6.350001,0 h 2.116667 m -6.35,0 h 2.116667 m -6.35,0 H 53.975 m -6.350001,0 h 2.116667 m -6.35,0 h 2.116667 m -6.35,0 H 41.275 m -6.350001,0 h 2.116667 m -6.35,0 h 2.116667 m -6.35,0 H 28.575 m -6.350001,0 h 2.116667 m -6.35,0 h 2.116667 m -6.35,0 H 15.875 m -6.35,0 h 2.116667 m -6.3500003,0 h 2.1166666 m -6.3499999,0 H 3.175 m -2.1166666,0 H 3.175 m 261.40833,1.05833 h 4.23333 m -12.69999,0 H 260.35 m -12.7,0 h 4.23333 m -12.7,0 h 4.23333 m -12.69999,0 H 234.95 m -12.7,0 h 4.23333 m -12.7,0 h 4.23333 m -12.69999,0 H 209.55 m -12.7,0 h 4.23333 m -12.7,0 h 4.23333 m -12.69999,0 H 184.15 m -12.7,0 h 4.23333 m -12.7,0 h 4.23333 m -12.69999,0 H 158.75 m -12.7,0 h 4.23333 m -12.7,0 h 4.23333 m -12.69999,0 H 133.35 m -12.7,0 h 4.23333 m -12.7,0 h 4.23333 m -12.69999,0 H 107.95 m -12.700001,0 h 4.233333 m -12.7,0 h 4.233333 m -12.699999,0 h 4.233333 m -12.7,0 h 4.233333 m -12.699999,0 h 4.233333 m -12.7,0 h 4.233333 m -12.699999,0 h 4.233333 m -12.7,0 h 4.233333 m -12.699999,0 H 31.75 m -12.7,0 h 4.233333 m -12.7,0 h 4.233334 m -12.7000003,0 h 4.2333334 m -4.2333334,0 H 6.3500001 M 258.23333,274.51041 H 266.7 m -25.40001,0 h 8.46667 m -25.4,0 h 8.46667 m -25.4,0 H 215.9 m -25.40001,0 h 8.46667 m -25.4,0 h 8.46667 m -25.4,0 H 165.1 m -25.40001,0 h 8.46667 m -25.4,0 h 8.46667 m -25.4,0 H 114.3 m -25.400002,0 h 8.466667 m -25.4,0 h 8.466667 m -25.4,0 h 8.466667 m -25.4,0 h 8.466667 m -25.4,0 h 8.466667 m -25.3999997,0 H 12.7 m -8.4666667,0 H 12.7 m 232.83333,1.05836 h 16.93333 m -50.79999,0 H 228.6 m -50.8,0 h 16.93333 m -50.8,0 h 16.93333 m -50.79999,0 H 127 m -50.8,0 h 16.933334 m -50.800001,0 h 16.933334 m -50.8000003,0 H 25.4 m 194.73333,1.05831 h 33.86666 m -101.59999,0 h 33.86666 m -101.599993,-2e-5 h 33.866663 m -101.599997,0 H 50.8 m 118.53333,1.05832 h 67.73334 m -203.200003,0 H 101.6 m -33.866667,1.05836 H 203.2 m -67.73333,1.05832 h 135.46667"
       copytype="single_stretched"
       prop_scale="1"
       scale_y_rel="false"
       spacing="0"
       normal_offset="0"
       tang_offset="0"
       prop_units="false"
       vertical_pattern="false"
       fuse_tolerance="0" />
    <inkscape:path-effect
       effect="skeletal"
       id="path-effect8105"
       is_visible="true"
       pattern="m 270.13957,270.27709 h 0.52917 m -1.5875,0 h 0.52917 m -1.58751,0 h 0.52917 m -1.5875,0 h 0.52917 m -1.5875,0 h 0.52917 m -1.58751,0 h 0.52917 m -1.5875,0 h 0.52917 m -1.5875,0 h 0.52917 m -1.5875,0 h 0.52917 m -1.58751,0 h 0.52917 m -1.5875,0 h 0.52917 m -1.5875,0 h 0.52917 m -1.58751,0 h 0.52917 m -1.5875,0 h 0.52917 m -1.5875,0 h 0.52917 m -1.58751,0 h 0.52917 m -1.5875,0 h 0.52917 m -1.5875,0 h 0.52917 m -1.58751,0 h 0.52917 m -1.5875,0 h 0.52917 m -1.5875,0 h 0.52917 m -1.58751,0 h 0.52917 m -1.5875,0 h 0.52917 m -1.5875,0 h 0.52917 m -1.58751,0 h 0.52917 m -1.5875,0 h 0.52917 m -1.5875,0 h 0.52917 m -1.58751,0 h 0.52917 m -1.5875,0 h 0.52917 m -1.5875,0 h 0.52917 m -1.58751,0 h 0.52917 m -1.5875,0 h 0.52917 m -1.5875,0 h 0.52917 m -1.58751,0 h 0.52917 m -1.5875,0 h 0.52917 m -1.5875,0 h 0.52917 m -1.58751,0 h 0.52917 m -1.5875,0 h 0.52917 m -1.5875,0 h 0.52917 m -1.58751,0 h 0.52917 m -1.5875,0 h 0.52917 m -1.5875,0 h 0.52917 m -1.58751,0 h 0.52917 m -1.5875,0 h 0.52917 m -1.5875,0 h 0.52917 m -1.58751,0 h 0.52917 m -1.5875,0 h 0.52917 m -1.5875,0 h 0.52917 m -1.58751,0 h 0.52917 m -1.5875,0 h 0.52917 m -1.5875,0 h 0.52917 m -1.58751,0 h 0.52917 m -1.5875,0 h 0.52917 m -1.5875,0 h 0.52917 m -1.58751,0 h 0.52917 m -1.5875,0 h 0.52917 m -1.5875,0 h 0.52917 m -1.58751,0 h 0.52917 m -1.5875,0 h 0.52917 m -1.5875,0 h 0.52917 m -1.58751,0 h 0.52917 m -1.5875,0 h 0.52917 m -1.5875,0 h 0.52917 m -1.58751,0 h 0.52917 m -1.5875,0 h 0.52917 m -1.5875,0 h 0.52917 m -1.58751,0 h 0.52917 m -1.5875,0 h 0.52917 m -1.5875,0 h 0.52917 m -1.58751,0 h 0.52917 m -1.5875,0 h 0.52917 m -1.5875,0 h 0.52917 m -1.58751,0 h 0.52917 m -1.5875,0 h 0.52917 m -1.5875,0 h 0.52917 m -1.58751,0 h 0.52917 m -1.5875,0 h 0.52917 m -1.5875,0 h 0.52917 m -1.58751,0 h 0.52917 m -1.5875,0 h 0.52917 m -1.5875,0 h 0.52917 m -1.58751,0 h 0.52917 m -1.5875,0 h 0.52917 m -1.5875,0 h 0.52917 m -1.58751,0 h 0.52917 m -1.5875,0 h 0.52917 m -1.5875,0 h 0.52917 m -1.58751,0 h 0.52917 m -1.5875,0 h 0.52917 m -1.5875,0 h 0.52917 m -1.58751,0 h 0.52917 m -1.5875,0 h 0.52917 m -1.5875,0 h 0.52917 m -1.58751,0 h 0.52917 m -1.5875,0 h 0.52917 m -1.5875,0 h 0.52917 m -1.58751,0 h 0.52917 m -1.5875,0 h 0.52917 m -1.5875,0 h 0.52917 m -1.58751,0 h 0.52917 m -1.5875,0 h 0.52917 m -1.5875,0 h 0.52917 m -1.58751,0 h 0.52917 m -1.5875,0 h 0.52917 m -1.5875,0 h 0.52917 m -1.58751,0 h 0.52917 m -1.5875,0 h 0.52917 m -1.5875,0 h 0.52917 m -1.5875,0 h 0.52917 m -1.58751,0 h 0.52917 m -1.5875,0 h 0.52917 m -1.5875,0 h 0.52917 m -1.58751,0 h 0.52917 m -1.5875,0 h 0.52917 m -1.5875,0 h 0.52917 m -1.58751,0 h 0.52917 m -1.5875,0 h 0.52917 m -1.5875,0 h 0.52917 m -1.58751,0 h 0.52917 m -1.5875,0 h 0.52917 m -1.5875,0 h 0.52917 m -1.58751,0 h 0.52917 m -1.5875,0 h 0.52917 m -1.5875,0 h 0.52917 m -1.58751,0 h 0.52917 m -1.5875,0 h 0.52917 m -1.5875,0 h 0.52917 m -1.58751,0 h 0.52917 m -1.5875,0 h 0.52917 m -1.5875,0 h 0.52917 m -1.58751,0 h 0.52917 m -1.5875,0 h 0.52917 m -1.5875,0 h 0.52917 m -1.58751,0 h 0.52917 m -1.5875,0 h 0.52917 m -1.5875,0 h 0.52917 m -1.58751,0 h 0.52917 m -1.5875,0 h 0.52917 m -1.5875,0 h 0.52917 m -1.58751,0 h 0.52917 m -1.5875,0 h 0.52917 m -1.5875,0 h 0.52917 m -1.58751,0 h 0.52917 m -1.5875,0 h 0.52917 m -1.5875,0 h 0.52917 m -1.58751,0 h 0.52917 m -1.5875,0 h 0.52917 m -1.5875,0 h 0.52917 m -1.58751,0 h 0.52917 m -1.5875,0 h 0.52917 m -1.5875,0 h 0.52917 m -1.58751,0 h 0.52917 m -1.5875,0 h 0.52917 m -1.5875,0 h 0.52917 m -1.58751,0 h 0.52917 m -1.5875,0 h 0.52917 m -1.5875,0 h 0.52917 m -1.58751,0 h 0.52917 m -1.5875,0 h 0.52917 m -1.5875,0 h 0.52917 m -1.58751,0 h 0.52917 m -1.587497,0 h 0.529167 m -1.5875,0 h 0.529167 m -1.5875,0 h 0.529167 m -1.587501,0 h 0.529167 m -1.5875,0 h 0.529167 m -1.5875,0 h 0.529167 m -1.587501,0 h 0.529167 m -1.5875,0 h 0.529167 m -1.5875,0 h 0.529167 m -1.587501,0 h 0.529167 m -1.5875,0 h 0.529167 m -1.5875,0 h 0.529167 m -1.5875,0 h 0.529167 m -1.587501,0 h 0.529167 m -1.5875,0 h 0.529167 m -1.5875,0 h 0.529167 m -1.587501,0 h 0.529167 m -1.5875,0 h 0.529167 m -1.5875,0 h 0.529167 m -1.587501,0 h 0.529167 m -1.5875,0 h 0.529167 m -1.5875,0 h 0.529167 m -1.5875,0 h 0.529167 m -1.587501,0 h 0.529167 m -1.5875,0 h 0.529167 m -1.5875,0 h 0.529167 m -1.587501,0 h 0.529167 m -1.5875,0 h 0.529167 m -1.5875,0 h 0.529167 m -1.587501,0 h 0.529167 m -1.5875,0 h 0.529167 m -1.5875,0 h 0.529167 m -1.5875,0 h 0.529167 m -1.587501,0 h 0.529167 m -1.5875,0 h 0.529167 m -1.5875,0 h 0.529167 m -1.587501,0 h 0.529167 m -1.5875,0 h 0.529167 m -1.5875,0 h 0.529167 m -1.587501,0 h 0.529167 m -1.5875,0 h 0.529167 m -1.5875,0 h 0.529167 m -1.5875,0 h 0.529167 m -1.587501,0 h 0.529167 m -1.5875,0 h 0.529167 m -1.5875,0 h 0.529167 m -1.587501,0 h 0.529167 m -1.5875,0 h 0.529167 m -1.5875,0 h 0.529167 m -1.587501,0 h 0.529167 m -1.5875,0 h 0.529167 m -1.5875,0 h 0.529167 m -1.5875,0 h 0.529167 m -1.587501,0 h 0.529167 m -1.5875,0 h 0.529167 m -1.5875,0 h 0.529167 m -1.587501,0 h 0.529167 m -1.5875,0 h 0.529167 m -1.5875,0 h 0.529167 m -1.587501,0 h 0.529167 m -1.5875,0 h 0.529167 m -1.5875,0 h 0.529167 m -1.5875,0 h 0.529167 m -1.587501,0 h 0.529167 m -1.5875,0 h 0.529167 m -1.5875,0 h 0.529167 m -1.587501,0 h 0.529167 m -1.5875,0 h 0.529167 m -1.5875,0 h 0.529167 m -1.587501,0 h 0.529167 m -1.5875,0 h 0.529167 m -1.5875,0 h 0.529167 m -1.5875,0 h 0.529167 m -1.587501,0 h 0.529167 m -1.5875,0 h 0.529167 m -1.5875,0 h 0.529167 m -1.587501,0 h 0.529167 m -1.5875,0 h 0.529167 m -1.5875,0 h 0.529167 m -1.5875,0 h 0.529167 m -1.587501,0 h 0.529167 m -1.5875,0 h 0.529167 m -1.5875,0 h 0.529167 m -1.587501,0 h 0.529167 m -1.5875,0 h 0.529167 m -1.5874999,0 H 10.31875 m -1.5875002,0 h 0.5291666 m -1.5875,0 h 0.5291667 m -1.5875,0 h 0.5291667 m -1.5875,0 h 0.5291667 m -1.5875,0 h 0.5291667 m -1.5874999,0 h 0.5291666 m -1.5874999,0 h 0.5291666 m -1.5875,0 h 0.5291667 m -1.58749995,0 H 0.79375 m -0.52916665,0 H 0.79375 m 268.55208,1.05833 h 1.05833 m -3.175,0 h 1.05833 m -3.17499,0 h 1.05833 m -3.175,0 h 1.05833 m -3.17499,0 h 1.05833 m -3.175,0 h 1.05833 m -3.175,0 h 1.05833 m -3.17499,0 h 1.05833 m -3.175,0 h 1.05833 m -3.175,0 h 1.05833 m -3.17499,0 h 1.05833 m -3.175,0 h 1.05833 m -3.175,0 h 1.05833 m -3.17499,0 h 1.05833 m -3.175,0 h 1.05833 m -3.175,0 h 1.05833 m -3.17499,0 h 1.05833 m -3.175,0 h 1.05833 m -3.175,0 h 1.05833 m -3.17499,0 h 1.05833 m -3.175,0 h 1.05833 m -3.175,0 h 1.05833 m -3.17499,0 h 1.05833 m -3.175,0 h 1.05833 m -3.175,0 h 1.05833 m -3.17499,0 h 1.05833 m -3.175,0 h 1.05833 m -3.175,0 h 1.05833 m -3.17499,0 h 1.05833 m -3.175,0 h 1.05833 m -3.175,0 h 1.05833 m -3.17499,0 h 1.05833 m -3.175,0 h 1.05833 m -3.175,0 h 1.05833 m -3.17499,0 h 1.05833 m -3.175,0 h 1.05833 m -3.175,0 h 1.05833 m -3.17499,0 h 1.05833 m -3.175,0 h 1.05833 m -3.175,0 h 1.05833 m -3.17499,0 h 1.05833 m -3.175,0 h 1.05833 m -3.175,0 h 1.05833 m -3.17499,0 h 1.05833 m -3.175,0 h 1.05833 m -3.175,0 h 1.05833 m -3.17499,0 h 1.05833 m -3.175,0 h 1.05833 m -3.175,0 h 1.05833 m -3.17499,0 h 1.05833 m -3.175,0 h 1.05833 m -3.175,0 h 1.05833 m -3.17499,0 h 1.05833 m -3.175,0 h 1.05833 m -3.175,0 h 1.05833 m -3.17499,0 h 1.05833 m -3.175,0 h 1.05833 m -3.175,0 h 1.05833 m -3.17499,0 h 1.05833 m -3.175,0 h 1.05833 m -3.175,0 h 1.05833 m -3.17499,0 h 1.05833 m -3.175,0 h 1.05833 m -3.175,0 h 1.05833 m -3.17499,0 h 1.05833 m -3.175,0 h 1.05833 m -3.175,0 h 1.05833 m -3.17499,0 h 1.05833 m -3.175,0 h 1.05833 m -3.175,0 h 1.05833 m -3.17499,0 h 1.05833 m -3.175,0 h 1.05833 m -3.175,0 h 1.05833 m -3.17499,0 h 1.05833 m -3.175,0 h 1.05833 m -3.175,0 h 1.05833 m -3.17499,0 h 1.05833 m -3.175,0 h 1.05833 m -3.175,0 h 1.05833 m -3.17499,0 h 1.05833 m -3.175,0 h 1.05833 m -3.174998,0 h 1.058333 m -3.175,0 h 1.058333 m -3.174999,0 h 1.058333 m -3.175,0 h 1.058333 m -3.175,0 h 1.058333 m -3.174999,0 h 1.058333 m -3.175,0 h 1.058333 m -3.175,0 h 1.058333 m -3.174999,0 h 1.058333 m -3.175,0 h 1.058333 m -3.174999,0 h 1.058333 m -3.175,0 h 1.058333 m -3.175,0 h 1.058333 m -3.174999,0 h 1.058333 m -3.175,0 h 1.058333 m -3.175,0 h 1.058333 m -3.174999,0 h 1.058333 m -3.175,0 h 1.058333 m -3.174999,0 h 1.058333 m -3.175,0 h 1.058333 m -3.175,0 h 1.058333 m -3.174999,0 h 1.058333 m -3.175,0 h 1.058333 m -3.175,0 h 1.058333 m -3.174999,0 h 1.058333 m -3.175,0 h 1.058333 m -3.174999,0 h 1.058333 m -3.175,0 h 1.058333 m -3.175,0 h 1.058333 m -3.174999,0 h 1.058333 m -3.175,0 h 1.058333 m -3.175,0 h 1.058333 m -3.174999,0 h 1.058333 m -3.175,0 h 1.058333 m -3.174999,0 H 26.9875 m -3.175,0 h 1.058333 m -3.175,0 h 1.058333 m -3.174999,0 H 20.6375 m -3.175,0 h 1.058333 m -3.175,0 h 1.058333 m -3.174999,0 H 14.2875 m -3.175,0 h 1.058333 m -3.1749998,0 h 1.0583338 m -3.1750004,0 h 1.0583333 m -3.1749999,0 h 1.0583333 m -3.175,0 h 1.0583333 m -3.17499991,0 H 1.5875 m -1.05833331,0 H 1.5875 m 266.17083,1.05833 h 2.11667 m -6.35001,0 h 2.11667 m -6.35,0 h 2.11667 m -6.35,0 h 2.11667 m -6.35001,0 h 2.11667 m -6.35,0 h 2.11667 m -6.35,0 h 2.11667 m -6.35001,0 h 2.11667 m -6.35,0 h 2.11667 m -6.35,0 h 2.11667 m -6.35001,0 h 2.11667 m -6.35,0 h 2.11667 m -6.35,0 h 2.11667 m -6.35001,0 h 2.11667 m -6.35,0 h 2.11667 m -6.35,0 h 2.11667 m -6.35,0 h 2.11667 m -6.35001,0 h 2.11667 m -6.35,0 h 2.11667 m -6.35,0 h 2.11667 m -6.35001,0 h 2.11667 m -6.35,0 h 2.11667 m -6.35,0 h 2.11667 m -6.35001,0 h 2.11667 m -6.35,0 h 2.11667 m -6.35,0 h 2.11667 m -6.35001,0 h 2.11667 m -6.35,0 h 2.11667 m -6.35,0 h 2.11667 m -6.35001,0 h 2.11667 m -6.35,0 h 2.11667 m -6.35,0 h 2.11667 m -6.35001,0 h 2.11667 m -6.35,0 h 2.11667 m -6.35,0 h 2.11667 m -6.35001,0 h 2.11667 m -6.35,0 h 2.11667 m -6.35,0 h 2.11667 m -6.35001,0 h 2.11667 m -6.35,0 h 2.11667 m -6.350001,0 h 2.116671 m -6.350004,0 h 2.116667 m -6.350001,0 h 2.116667 m -6.35,0 h 2.116667 m -6.35,0 h 2.116667 m -6.350001,0 h 2.116667 m -6.35,0 h 2.116667 m -6.35,0 h 2.116667 m -6.35,0 H 66.675 m -6.350001,0 h 2.116667 m -6.35,0 h 2.116667 m -6.35,0 H 53.975 m -6.350001,0 h 2.116667 m -6.35,0 h 2.116667 m -6.35,0 H 41.275 m -6.350001,0 h 2.116667 m -6.35,0 h 2.116667 m -6.35,0 H 28.575 m -6.350001,0 h 2.116667 m -6.35,0 h 2.116667 m -6.35,0 H 15.875 m -6.35,0 h 2.116667 m -6.3500003,0 h 2.1166666 m -6.3499999,0 H 3.175 m -2.1166666,0 H 3.175 m 261.40833,1.05833 h 4.23333 m -12.69999,0 H 260.35 m -12.7,0 h 4.23333 m -12.7,0 h 4.23333 m -12.69999,0 H 234.95 m -12.7,0 h 4.23333 m -12.7,0 h 4.23333 m -12.69999,0 H 209.55 m -12.7,0 h 4.23333 m -12.7,0 h 4.23333 m -12.69999,0 H 184.15 m -12.7,0 h 4.23333 m -12.7,0 h 4.23333 m -12.69999,0 H 158.75 m -12.7,0 h 4.23333 m -12.7,0 h 4.23333 m -12.69999,0 H 133.35 m -12.7,0 h 4.23333 m -12.7,0 h 4.23333 m -12.69999,0 H 107.95 m -12.700001,0 h 4.233333 m -12.7,0 h 4.233333 m -12.699999,0 h 4.233333 m -12.7,0 h 4.233333 m -12.699999,0 h 4.233333 m -12.7,0 h 4.233333 m -12.699999,0 h 4.233333 m -12.7,0 h 4.233333 m -12.699999,0 H 31.75 m -12.7,0 h 4.233333 m -12.7,0 h 4.233334 m -12.7000003,0 h 4.2333334 m -4.2333334,0 H 6.3500001 M 258.23333,274.51041 H 266.7 m -25.40001,0 h 8.46667 m -25.4,0 h 8.46667 m -25.4,0 H 215.9 m -25.40001,0 h 8.46667 m -25.4,0 h 8.46667 m -25.4,0 H 165.1 m -25.40001,0 h 8.46667 m -25.4,0 h 8.46667 m -25.4,0 H 114.3 m -25.400002,0 h 8.466667 m -25.4,0 h 8.466667 m -25.4,0 h 8.466667 m -25.4,0 h 8.466667 m -25.4,0 h 8.466667 m -25.3999997,0 H 12.7 m -8.4666667,0 H 12.7 m 232.83333,1.05836 h 16.93333 m -50.79999,0 H 228.6 m -50.8,0 h 16.93333 m -50.8,0 h 16.93333 m -50.79999,0 H 127 m -50.8,0 h 16.933334 m -50.800001,0 h 16.933334 m -50.8000003,0 H 25.4 m 194.73333,1.05831 h 33.86666 m -101.59999,0 h 33.86666 m -101.599993,-2e-5 h 33.866663 m -101.599997,0 H 50.8 m 118.53333,1.05832 h 67.73334 m -203.200003,0 H 101.6 m -33.866667,1.05836 H 203.2 m -67.73333,1.05832 h 135.46667"
       copytype="single_stretched"
       prop_scale="1"
       scale_y_rel="false"
       spacing="0"
       normal_offset="0"
       tang_offset="0"
       prop_units="false"
       vertical_pattern="false"
       fuse_tolerance="0" />
    <inkscape:path-effect
       effect="skeletal"
       id="path-effect865"
       is_visible="true"
       pattern="m 11.981852,298.80511 h 2.494631 c 0.04188,0 0.0756,0.0337 0.0756,0.0756 v 0.22677 c 0,0.0419 -0.03372,0.0756 -0.0756,0.0756 h -2.494631 c -0.04188,0 -0.0756,-0.0337 -0.0756,-0.0756 v -0.22677 c 0,-0.0419 0.03372,-0.0756 0.0756,-0.0756 z m -5.2916676,0 h 2.4946314 c 0.041883,0 0.075601,0.0337 0.075601,0.0756 v 0.22677 c 0,0.0419 -0.033718,0.0756 -0.075601,0.0756 H 6.6901844 c -0.041883,0 -0.075601,-0.0337 -0.075601,-0.0756 v -0.22677 c 0,-0.0419 0.033718,-0.0756 0.075601,-0.0756 z m 10.5833326,0 h 2.494631 c 0.04188,0 0.0756,0.0337 0.0756,0.0756 v 0.22677 c 0,0.0419 -0.03372,0.0756 -0.0756,0.0756 h -2.494631 c -0.04188,0 -0.0756,-0.0337 -0.0756,-0.0756 v -0.22677 c 0,-0.0419 0.03372,-0.0756 0.0756,-0.0756 z m -15.8749988,0 h 2.4946313 c 0.041883,0 0.075601,0.0337 0.075601,0.0756 v 0.22677 c 0,0.0419 -0.033718,0.0756 -0.075601,0.0756 H 1.3985182 c -0.041883,0 -0.075601,-0.0337 -0.075601,-0.0756 v -0.22677 c 0,-0.0419 0.033718,-0.0756 0.075601,-0.0756 z m 11.9062498,0.75595 h 5.140465 c 0.04188,0 0.0756,0.0337 0.0756,0.0756 v 0.22677 c 0,0.0419 -0.03372,0.0756 -0.0756,0.0756 h -5.140465 c -0.04188,0 -0.0756,-0.0337 -0.0756,-0.0756 v -0.22677 c 0,-0.0419 0.03372,-0.0756 0.0756,-0.0756 z m -10.5833331,0 h 5.1404646 c 0.041883,0 0.075601,0.0337 0.075601,0.0756 v 0.22677 c 0,0.0419 -0.033718,0.0756 -0.075601,0.0756 H 2.7214349 c -0.041883,0 -0.075601,-0.0337 -0.075601,-0.0756 v -0.22677 c 0,-0.0419 0.033718,-0.0756 0.075601,-0.0756 z m 2.645833,0.75595 H 15.799399 c 0.04188,0 0.0756,0.0337 0.0756,0.0756 v 0.22677 c 0,0.0419 -0.03372,0.0756 -0.0756,0.0756 H 5.3672679 c -0.041883,0 -0.075601,-0.0337 -0.075601,-0.0756 v -0.22677 c 0,-0.0419 0.033718,-0.0756 0.075601,-0.0756 z m 5.2916671,0.75595 h 10.432131 c 0.04188,0 0.0756,0.0337 0.0756,0.0756 v 0.22677 c 0,0.0419 -0.03372,0.0756 -0.0756,0.0756 H 10.658935 c -0.04188,0 -0.0756,-0.0337 -0.0756,-0.0756 v -0.22677 c 0,-0.0419 0.03372,-0.0756 0.0756,-0.0756 z"
       copytype="single_stretched"
       prop_scale="1"
       scale_y_rel="false"
       spacing="0"
       normal_offset="0"
       tang_offset="0"
       prop_units="false"
       vertical_pattern="false"
       fuse_tolerance="0" />
  </defs>
  <sodipodi:namedview
     id="base"
     pagecolor="#ffffff"
     bordercolor="#666666"
     borderopacity="1.0"
     inkscape:pageopacity="0.0"
     inkscape:pageshadow="2"
     inkscape:zoom="1"
     inkscape:cx="-115.42171"
     inkscape:cy="108.98799"
     inkscape:document-units="mm"
     inkscape:current-layer="layer1"
     showgrid="true"
     fit-margin-top="0"
     fit-margin-left="0"
     fit-margin-right="0"
     fit-margin-bottom="0"
     inkscape:window-width="1600"
     inkscape:window-height="839"
     inkscape:window-x="0"
     inkscape:window-y="37"
     inkscape:window-maximized="1">
    <inkscape:grid
       type="xygrid"
       id="grid815"
       originx="-76.784024"
       originy="-30.480998" />
  </sodipodi:namedview>
  <metadata
     id="metadata5">
    <rdf:RDF>
      <cc:Work
         rdf:about="">
        <dc:format>image/svg+xml</dc:format>
        <dc:type
           rdf:resource="http://purl.org/dc/dcmitype/StillImage" />
        <dc:title></dc:title>
      </cc:Work>
    </rdf:RDF>
  </metadata>
  <g
     inkscape:label="Layer 1"
     inkscape:groupmode="layer"
     id="layer1"
     transform="translate(-76.784027,-186.52177)">
    <path
       style="opacity:1;vector-effect:none;fill:none;fill-opacity:1;stroke:currentColor;stroke-width:0.95249999;stroke-linecap:butt;stroke-linejoin:miter;stroke-miterlimit:4;stroke-dasharray:none;stroke-dashoffset:0;stroke-opacity:1"
       id="path8137"
       inkscape:path-effect="#path-effect8139"
       sodipodi:type="arc"
       sodipodi:cx="104.51041"
       sodipodi:cy="245.40625"
       sodipodi:rx="22.489584"
       sodipodi:ry="22.489584"
       d="m 131.74747,244.89142 c 0.004,0.11423 0.008,0.22862 0.0111,0.34315 m -0.0464,-1.0267 c 0.007,0.11361 0.0139,0.22738 0.0198,0.34131 m -0.0724,-1.021 c 0.0102,0.11295 0.0197,0.22607 0.0284,0.33935 m -0.098,-1.01496 c 0.013,0.11225 0.0253,0.22468 0.0369,0.33728 m -0.12326,-1.0086 c 0.0158,0.11152 0.0309,0.22322 0.0453,0.33511 m -0.14821,-1.00191 c 0.0185,0.11075 0.0364,0.22169 0.0535,0.33282 m -0.17284,-0.99487 c 0.0212,0.10994 0.0418,0.22008 0.0617,0.33042 m -0.19713,-0.98751 c 0.0239,0.10909 0.0471,0.2184 0.0697,0.32792 m -0.22109,-0.97982 c 0.0265,0.10821 0.0524,0.21664 0.0777,0.32529 m -0.24472,-0.97179 c 0.0291,0.10729 0.0576,0.21481 0.0855,0.32256 m -0.26801,-0.96343 c 0.0317,0.10633 0.0628,0.21291 0.0932,0.31972 m -0.29098,-0.95474 c 0.0342,0.10534 0.0678,0.21093 0.10079,0.31677 m -0.31361,-0.94572 c 0.0367,0.10431 0.0728,0.20888 0.10828,0.3137 m -0.3359,-0.93635 c 0.0392,0.10324 0.0777,0.20675 0.11565,0.31053 m -0.35787,-0.92667 c 0.0416,0.10213 0.0825,0.20455 0.12292,0.30724 m -0.37951,-0.91665 c 0.0439,0.10099 0.0873,0.20228 0.13008,0.30385 m -0.40081,-0.9063 c 0.0463,0.0998 0.092,0.19993 0.13712,0.30034 m -0.42177,-0.8956 c 0.0486,0.0986 0.0966,0.19751 0.14406,0.29672 m -0.44242,-0.8846 c 0.0509,0.0974 0.10115,0.19502 0.15088,0.293 m -0.46271,-0.87324 c 0.0531,0.0961 0.10561,0.19245 0.15759,0.28916 m -0.48269,-0.86156 c 0.0553,0.0947 0.11001,0.18981 0.1642,0.28521 m -0.50233,-0.84955 c 0.0574,0.0934 0.11433,0.18709 0.17068,0.28115 m -0.52163,-0.83719 c 0.0596,0.092 0.11857,0.1843 0.17707,0.27697 m -0.54061,-0.82451 c 0.0616,0.0905 0.12274,0.18143 0.18333,0.27269 m -0.55925,-0.8115 c 0.0637,0.0891 0.12684,0.17849 0.1895,0.2683 m -0.57756,-0.79816 c 0.0657,0.0875 0.13086,0.17549 0.19554,0.2638 m -0.59554,-0.78448 c 0.0677,0.086 0.13481,0.1724 0.20148,0.25918 m -0.61318,-0.77048 c 0.0696,0.0844 0.13868,0.16925 0.2073,0.25446 m -0.63049,-0.75613 c 0.0715,0.0828 0.14248,0.16601 0.21302,0.24963 m -0.64747,-0.74146 c 0.0733,0.0811 0.14621,0.1627 0.21862,0.24468 m -0.66412,-0.72646 c 0.0751,0.0794 0.14986,0.15932 0.22411,0.23962 m -0.68043,-0.71111 c 0.0769,0.0777 0.15344,0.15587 0.2295,0.23445 m -0.69642,-0.69544 c 0.0787,0.0759 0.15695,0.15234 0.23477,0.22917 m -0.71207,-0.67944 c 0.0804,0.0741 0.16038,0.14874 0.23993,0.22378 m -0.72738,-0.66309 c 0.0821,0.0723 0.16374,0.14505 0.24498,0.21827 m -0.74237,-0.64643 c 0.0837,0.0704 0.16702,0.14131 0.24992,0.21267 m -0.75703,-0.62943 c 0.0853,0.0685 0.17024,0.13748 0.25475,0.20694 m -0.77134,-0.61209 c 0.0869,0.0665 0.17337,0.13358 0.25947,0.20111 m -0.78534,-0.59443 c 0.0884,0.0646 0.17644,0.12961 0.26408,0.19517 m -0.799,-0.57644 c 0.0899,0.0625 0.17943,0.12557 0.26858,0.18912 m -0.81232,-0.55811 c 0.0913,0.0605 0.18234,0.12145 0.27297,0.18295 m -0.82531,-0.53944 c 0.0928,0.0584 0.18517,0.11726 0.27723,0.17667 m -0.83797,-0.52044 c 0.0941,0.0562 0.18794,0.11298 0.2814,0.17028 m -0.85029,-0.50112 c 0.0955,0.054 0.19063,0.10865 0.28545,0.16379 m -0.86229,-0.48146 c 0.0968,0.0518 0.19326,0.10423 0.2894,0.15718 m -0.87396,-0.46147 c 0.0981,0.0496 0.19581,0.0998 0.29323,0.15046 m -0.88528,-0.44114 c 0.0993,0.0473 0.19828,0.0952 0.29695,0.14363 m -0.89628,-0.42048 c 0.10049,0.045 0.20068,0.0905 0.30057,0.13668 m -0.90696,-0.39949 c 0.10165,0.0426 0.203,0.0858 0.30407,0.12963 m -0.91728,-0.37817 c 0.10276,0.0402 0.20524,0.0811 0.30745,0.12247 m -0.92728,-0.35652 c 0.10385,0.0378 0.20742,0.0762 0.31073,0.1152 m -0.93695,-0.33453 c 0.10489,0.0353 0.20952,0.0713 0.31389,0.10781 m -0.94628,-0.31221 c 0.1059,0.0328 0.21156,0.0662 0.31696,0.10032 m -0.95529,-0.28957 c 0.10687,0.0303 0.21351,0.0612 0.3199,0.0927 m -0.96396,-0.26658 c 0.1078,0.0277 0.21538,0.056 0.32273,0.085 m -0.9723,-0.24326 c 0.10871,0.0251 0.2172,0.0508 0.32546,0.0772 m -0.9803,-0.21961 c 0.10957,0.0224 0.21893,0.0455 0.32807,0.0692 m -0.98798,-0.19564 c 0.1104,0.0197 0.22059,0.0401 0.33057,0.0612 m -0.99531,-0.17132 c 0.11118,0.017 0.22217,0.0347 0.33296,0.053 m -1.00232,-0.14668 c 0.11193,0.0142 0.22368,0.0291 0.33524,0.0448 m -1.009,-0.1217 c 0.11264,0.0114 0.22512,0.0236 0.33741,0.0364 m -1.01534,-0.0964 c 0.11332,0.009 0.22648,0.0179 0.33947,0.0279 m -1.02136,-0.0707 c 0.11397,0.006 0.22778,0.0121 0.34143,0.0193 m -1.02705,-0.0448 c 0.11457,0.003 0.22899,0.006 0.34327,0.0106 m -1.0301,0.003 c 0.11419,-0.005 0.22854,-0.009 0.34304,-0.0117 m -1.02635,0.048 c 0.11357,-0.008 0.2273,-0.0143 0.34119,-0.0204 m -1.02064,0.074 c 0.11291,-0.0104 0.22598,-0.02 0.33923,-0.0289 m -1.01458,0.0996 c 0.11221,-0.0132 0.22459,-0.0257 0.33715,-0.0374 m -1.00818,0.12482 c 0.11146,-0.016 0.22312,-0.0312 0.33496,-0.0458 m -1.00147,0.14977 c 0.11069,-0.0187 0.22158,-0.0367 0.33267,-0.0541 m -0.994421,0.17437 c 0.109881,-0.0214 0.219971,-0.0421 0.330271,-0.0622 m -0.98704,0.19864 c 0.109035,-0.0241 0.218287,-0.0475 0.327751,-0.0702 m -0.979328,0.22258 c 0.10815,-0.0267 0.216527,-0.0528 0.325124,-0.0782 m -0.971275,0.24618 c 0.107229,-0.0293 0.214693,-0.058 0.322387,-0.086 m -0.962895,0.26946 c 0.10627,-0.0319 0.212784,-0.0631 0.319538,-0.0937 m -0.954189,0.2924 c 0.105275,-0.0344 0.210802,-0.0681 0.316579,-0.10125 m -0.945138,0.31501 c 0.104241,-0.0369 0.208746,-0.0731 0.313508,-0.10874 m -0.935761,0.33728 c 0.103172,-0.0393 0.206616,-0.078 0.310327,-0.11611 m -0.926057,0.35924 c 0.102065,-0.0417 0.204412,-0.0828 0.307035,-0.12337 m -0.916009,0.38084 c 0.100921,-0.0441 0.202134,-0.0876 0.303632,-0.13052 m -0.905635,0.40213 c 0.09974,-0.0464 0.199782,-0.0923 0.300119,-0.13756 m -0.894935,0.42308 c 0.09852,-0.0487 0.197357,-0.0969 0.296495,-0.14448 m -0.88389,0.44368 c 0.09727,-0.051 0.194858,-0.10143 0.29276,-0.1513 m -0.872519,0.46398 c 0.09598,-0.0532 0.192285,-0.1059 0.288914,-0.15801 m -0.860821,0.48393 c 0.09465,-0.0554 0.189638,-0.11028 0.284958,-0.16461 m -0.848779,0.50355 c 0.09329,-0.0576 0.186917,-0.1146 0.280889,-0.17109 m -0.83641,0.52283 c 0.09188,-0.0597 0.184122,-0.11884 0.276711,-0.17746 m -0.823714,0.54178 c 0.09044,-0.0617 0.181253,-0.123 0.272422,-0.18372 m -0.810677,0.5604 c 0.08897,-0.0638 0.178312,-0.12709 0.268023,-0.18987 m -0.797311,0.57869 c 0.08746,-0.0658 0.175295,-0.13111 0.263512,-0.19591 m -0.783618,0.59665 c 0.08591,-0.0678 0.172205,-0.13505 0.258891,-0.20185 m -0.769583,0.61428 c 0.08432,-0.0697 0.169041,-0.13893 0.254158,-0.20767 m -0.75522,0.63157 c 0.0827,-0.0716 0.165803,-0.14272 0.249316,-0.21338 m -0.74053,0.64853 c 0.08104,-0.0735 0.162491,-0.14644 0.244362,-0.21897 m -0.725498,0.66515 c 0.07934,-0.0753 0.159105,-0.15009 0.239297,-0.22445 m -0.710138,0.68144 c 0.0776,-0.077 0.155646,-0.15367 0.234122,-0.22983 m -0.694451,0.69741 c 0.07583,-0.0788 0.152113,-0.15717 0.228836,-0.2351 m -0.678421,0.71304 c 0.07402,-0.0805 0.148505,-0.1606 0.223439,-0.24026 m -0.662065,0.72834 c 0.07218,-0.0822 0.144825,-0.16395 0.217931,-0.2453 m -0.645379,0.74331 c 0.0703,-0.0838 0.141069,-0.16723 0.212312,-0.25023 m -0.628354,0.75793 c 0.06838,-0.0854 0.137241,-0.17043 0.206584,-0.25505 m -0.611,0.77223 c 0.06642,-0.087 0.133338,-0.17357 0.200743,-0.25976 m -0.593317,0.7862 c 0.06443,-0.0885 0.129362,-0.17662 0.194792,-0.26436 m -0.575295,0.79983 c 0.0624,-0.09 0.125312,-0.1796 0.188731,-0.26885 m -0.556944,0.81314 c 0.06033,-0.0914 0.121188,-0.18252 0.182559,-0.27323 m -0.538264,0.82611 c 0.05823,-0.0928 0.116989,-0.18535 0.176275,-0.2775 m -0.519245,0.83875 c 0.05609,-0.0942 0.112718,-0.18811 0.169881,-0.28166 m -0.499896,0.85106 c 0.05391,-0.0956 0.108371,-0.19081 0.163376,-0.28571 m -0.480216,0.86303 c 0.0517,-0.0969 0.103952,-0.19342 0.156761,-0.28964 m -0.460206,0.87468 c 0.04945,-0.0981 0.09946,-0.19596 0.150034,-0.29347 m -0.439857,0.88598 c 0.04716,-0.0994 0.09489,-0.19843 0.143197,-0.29718 m -0.41918,0.89696 c 0.04483,-0.10056 0.09025,-0.20082 0.136249,-0.30079 m -0.398173,0.90761 c 0.04247,-0.10171 0.08553,-0.20314 0.12919,-0.30428 m -0.376827,0.91792 c 0.04007,-0.10283 0.08075,-0.20539 0.12202,-0.30766 m -0.355152,0.92789 c 0.03763,-0.10391 0.07588,-0.20756 0.11474,-0.31093 m -0.333148,0.93755 c 0.03516,-0.10496 0.07095,-0.20966 0.107349,-0.3141 m -0.310806,0.94686 c 0.03265,-0.10596 0.06594,-0.21168 0.09985,-0.31714 m -0.288134,0.95584 c 0.03011,-0.10694 0.06085,-0.21363 0.09224,-0.32008 m -0.265132,0.96449 c 0.02752,-0.10786 0.05569,-0.2155 0.08451,-0.32291 m -0.241793,0.97281 c 0.0249,-0.10876 0.05046,-0.21731 0.07668,-0.32562 m -0.218124,0.98079 c 0.02224,-0.10963 0.04516,-0.21904 0.06873,-0.32823 m -0.194124,0.98845 c 0.01955,-0.11045 0.03978,-0.22069 0.06068,-0.33073 m -0.169789,0.99576 c 0.01682,-0.11123 0.03432,-0.22226 0.05251,-0.33311 m -0.145123,1.00276 c 0.01405,-0.11198 0.02879,-0.22378 0.04423,-0.33539 m -0.120126,1.00942 c 0.01124,-0.11269 0.02319,-0.22521 0.03584,-0.33755 m -0.09479,1.01573 c 0.0084,-0.11337 0.01752,-0.22657 0.02734,-0.3396 m -0.06913,1.02172 c 0.0055,-0.114 0.01177,-0.22785 0.01873,-0.34154 m -0.04314,1.02739 c 0.0026,-0.11461 0.0059,-0.22907 0.01001,-0.34337 m 0.0066,1.03005 c -0.0048,-0.11416 -0.0089,-0.22847 -0.0122,-0.34293 m 0.04966,1.026 c -0.0077,-0.11352 -0.01465,-0.22722 -0.02089,-0.34106 m 0.07557,1.02026 c -0.01054,-0.11286 -0.02036,-0.2259 -0.02948,-0.3391 m 0.101149,1.01419 c -0.01335,-0.11216 -0.026,-0.2245 -0.03795,-0.33702 m 0.126397,1.00778 c -0.01613,-0.11142 -0.03157,-0.22303 -0.04631,-0.33483 m 0.151314,1.00105 c -0.01887,-0.11065 -0.03706,-0.22149 -0.05456,-0.33253 m 0.175895,0.99397 c -0.02157,-0.10983 -0.04247,-0.21987 -0.0627,-0.33012 m 0.200147,0.98657 c -0.02424,-0.10898 -0.04782,-0.21818 -0.07073,-0.32759 m 0.224067,0.97883 c -0.02687,-0.10809 -0.05308,-0.21641 -0.07864,-0.32495 m 0.247651,0.97076 c -0.02946,-0.10717 -0.05828,-0.21458 -0.08645,-0.32222 m 0.270904,0.96236 c -0.03202,-0.1062 -0.0634,-0.21266 -0.09415,-0.31935 m 0.293828,0.95363 c -0.03454,-0.10521 -0.06845,-0.21068 -0.101731,-0.31639 m 0.316415,0.94456 c -0.03702,-0.10417 -0.07342,-0.20861 -0.109205,-0.31331 m 0.338671,0.93516 c -0.03946,-0.1031 -0.07832,-0.20648 -0.116568,-0.31012 m 0.360598,0.92544 c -0.04187,-0.102 -0.08315,-0.20428 -0.123821,-0.30683 m 0.382187,0.91537 c -0.04424,-0.10085 -0.0879,-0.20199 -0.130963,-0.30341 m 0.403447,0.90497 c -0.04658,-0.0997 -0.09258,-0.19963 -0.137994,-0.2999 m 0.424376,0.89426 c -0.04888,-0.0985 -0.09718,-0.1972 -0.144914,-0.29627 m 0.444968,0.88319 c -0.05114,-0.0972 -0.101713,-0.1947 -0.151724,-0.29252 m 0.465231,0.8718 c -0.05336,-0.0959 -0.10617,-0.19213 -0.158423,-0.28867 m 0.485164,0.86007 c -0.05555,-0.0946 -0.110552,-0.18947 -0.165011,-0.2847 m 0.504758,0.84801 c -0.0577,-0.0932 -0.114861,-0.18674 -0.171487,-0.28063 m 0.524023,0.83563 c -0.05981,-0.0918 -0.119096,-0.18395 -0.177854,-0.27645 m 0.54296,0.82291 c -0.06189,-0.0904 -0.123258,-0.18107 -0.18411,-0.27215 m 0.561556,0.80985 c -0.06392,-0.0889 -0.127344,-0.17813 -0.190254,-0.26775 m 0.579825,0.79647 c -0.06593,-0.0874 -0.131358,-0.17511 -0.196289,-0.26323 m 0.597764,0.78275 c -0.06789,-0.0858 -0.135297,-0.17201 -0.202211,-0.2586 m 0.615364,0.7687 c -0.06982,-0.0842 -0.139164,-0.16884 -0.208025,-0.25386 m 0.632635,0.75431 c -0.07171,-0.0826 -0.142955,-0.1656 -0.213726,-0.24901 m 0.649578,0.7396 c -0.07357,-0.0809 -0.146673,-0.16228 -0.219317,-0.24405 m 0.66618,0.72455 c -0.07538,-0.0792 -0.150317,-0.15889 -0.224797,-0.23898 m 0.682454,0.70917 c -0.07716,-0.0775 -0.153888,-0.15543 -0.230166,-0.2338 m 0.698399,0.69346 c -0.07891,-0.0757 -0.157384,-0.15189 -0.235424,-0.2285 m 0.714003,0.67741 c -0.08061,-0.0739 -0.160806,-0.14828 -0.240571,-0.2231 m 0.729281,0.66103 c -0.08228,-0.0721 -0.164154,-0.14459 -0.245608,-0.21758 m 0.744226,0.64432 c -0.08392,-0.0702 -0.167429,-0.14083 -0.250534,-0.21196 m 0.758838,0.62728 c -0.08551,-0.0683 -0.17063,-0.137 -0.255349,-0.20622 m 0.773117,0.6099 c -0.08707,-0.0663 -0.173757,-0.13309 -0.260054,-0.20037 m 0.787065,0.59219 c -0.08859,-0.0643 -0.176811,-0.1291 -0.264648,-0.19441 m 0.80068,0.57416 c -0.09008,-0.0623 -0.17979,-0.12506 -0.26913,-0.18835 m 0.813962,0.55578 c -0.09153,-0.0602 -0.182695,-0.12092 -0.273502,-0.18216 m 0.826912,0.53708 c -0.09294,-0.0581 -0.185527,-0.11673 -0.277764,-0.17588 m 0.83953,0.51804 c -0.09431,-0.0559 -0.188284,-0.11244 -0.281914,-0.16947 m 0.851815,0.49867 c -0.09565,-0.0538 -0.190968,-0.10809 -0.285953,-0.16296 m 0.863768,0.47897 c -0.09695,-0.0516 -0.193579,-0.10367 -0.289883,-0.15634 m 0.875389,0.45894 c -0.09821,-0.0493 -0.196115,-0.0992 -0.293701,-0.14961 m 0.886678,0.43857 c -0.09944,-0.047 -0.198578,-0.0946 -0.297409,-0.14276 m 0.897634,0.41787 c -0.10063,-0.0447 -0.200966,-0.0899 -0.301005,-0.13581 m 0.908256,0.39685 c -0.101782,-0.0423 -0.20328,-0.0852 -0.30449,-0.12875 m 0.918548,0.37548 c -0.102898,-0.0399 -0.205521,-0.0804 -0.307866,-0.12156 m 0.928507,0.35378 c -0.103976,-0.0375 -0.207688,-0.0756 -0.31113,-0.11428 m 0.938134,0.33176 c -0.105019,-0.035 -0.209782,-0.0706 -0.314284,-0.10688 m 0.947428,0.30939 c -0.106023,-0.0325 -0.2118,-0.0656 -0.317326,-0.0994 m 0.956389,0.2867 c -0.106991,-0.0299 -0.213746,-0.0605 -0.320258,-0.0917 m 0.965019,0.26368 c -0.107923,-0.0274 -0.215617,-0.0554 -0.323079,-0.084 m 0.973315,0.24032 c -0.108817,-0.0247 -0.217415,-0.0501 -0.325789,-0.0762 m 0.981281,0.21663 c -0.109674,-0.0221 -0.219139,-0.0448 -0.328389,-0.0682 m 0.988912,0.19261 c -0.11049,-0.0194 -0.22079,-0.0394 -0.33088,-0.0602 m 0.99622,0.16826 c -0.11128,-0.0167 -0.22237,-0.034 -0.33326,-0.052 m 1.00318,0.14357 c -0.11202,-0.0139 -0.22387,-0.0284 -0.33552,-0.0437 m 1.00981,0.11855 c -0.11273,-0.0111 -0.22529,-0.0228 -0.33768,-0.0353 m 1.01612,0.0932 c -0.1134,-0.008 -0.22665,-0.0172 -0.33972,-0.0268 m 1.02209,0.0675 c -0.11405,-0.005 -0.22793,-0.0114 -0.34166,-0.0182 m 1.02772,0.0415 c -0.11464,-0.002 -0.22913,-0.006 -0.34348,-0.009 m 1.02998,-0.01 c -0.11411,0.005 -0.22839,0.009 -0.34281,0.0127 m 1.02565,-0.0513 c -0.11348,0.008 -0.22713,0.015 -0.34094,0.0214 m 1.01989,-0.0772 c -0.11282,0.0107 -0.22582,0.0207 -0.33897,0.03 m 1.01379,-0.10274 c -0.11211,0.0135 -0.22441,0.0263 -0.33688,0.0385 m 1.00736,-0.12796 c -0.11137,0.0163 -0.22293,0.0319 -0.33468,0.0468 m 1.00061,-0.15286 c -0.1106,0.019 -0.22139,0.0374 -0.33238,0.0551 m 0.99351,-0.17742 c -0.10978,0.0217 -0.21976,0.0428 -0.32995,0.0632 m 0.98609,-0.20165 c -0.10893,0.0244 -0.21807,0.0481 -0.32743,0.0712 m 0.97833,-0.22555 c -0.10803,0.027 -0.2163,0.0534 -0.32478,0.0791 m 0.97024,-0.24912 c -0.10711,0.0296 -0.21446,0.0586 -0.32203,0.0869 m 0.96182,-0.27235 c -0.10615,0.0322 -0.21254,0.0637 -0.31917,0.0946 m 0.95307,-0.29525 c -0.10515,0.0347 -0.21055,0.0688 -0.3162,0.1022 m 0.94398,-0.31782 c -0.10411,0.0372 -0.20848,0.0737 -0.31311,0.10967 m 0.93456,-0.34005 c -0.10303,0.0396 -0.20634,0.0786 -0.30992,0.11702 m 0.92481,-0.36195 c -0.10192,0.042 -0.20413,0.0834 -0.30661,0.12427 m 0.91473,-0.38353 c -0.10078,0.0444 -0.20184,0.0882 -0.3032,0.13141 m 0.90432,-0.40477 c -0.0996,0.0467 -0.19948,0.0929 -0.29967,0.13843 m 0.89356,-0.42567 c -0.0984,0.049 -0.19704,0.0975 -0.29603,0.14534 m 0.88249,-0.44625 c -0.0971,0.0513 -0.19454,0.102 -0.29229,0.15215 m 0.87108,-0.46649 c -0.0958,0.0535 -0.19196,0.10645 -0.28843,0.15884 m 0.85933,-0.4864 c -0.0945,0.0557 -0.1893,0.11083 -0.28445,0.16542 m 0.84725,-0.50597 c -0.0931,0.0578 -0.18657,0.11512 -0.28038,0.17188 m 0.83484,-0.52521 c -0.0917,0.0599 -0.18376,0.11935 -0.27617,0.17824 m 0.82209,-0.54413 c -0.0903,0.062 -0.18089,0.12352 -0.27187,0.1845 m 0.80902,-0.56271 c -0.0888,0.0641 -0.17794,0.1276 -0.26747,0.19064 m 0.79562,-0.58096 c -0.0873,0.066 -0.17491,0.1316 -0.26294,0.19666 m 0.78188,-0.59887 c -0.0857,0.068 -0.17181,0.13554 -0.25831,0.20258 m 0.76781,-0.61646 c -0.0841,0.0699 -0.16864,0.1394 -0.25356,0.20838 m 0.7534,-0.6337 c -0.0825,0.0718 -0.16539,0.14319 -0.2487,0.21408 m 0.73866,-0.65063 c -0.0808,0.0737 -0.16207,0.14691 -0.24373,0.21967 m 0.72359,-0.66721 c -0.0791,0.0755 -0.15867,0.15054 -0.23865,0.22513 m 0.70819,-0.68346 c -0.0774,0.0773 -0.15521,0.15411 -0.23346,0.2305 m 0.69246,-0.69938 c -0.0756,0.079 -0.15167,0.1576 -0.22817,0.23574 m 0.67639,-0.71497 c -0.0738,0.0807 -0.14805,0.16102 -0.22275,0.24089 m 0.65999,-0.73022 c -0.0719,0.0824 -0.14436,0.16436 -0.21723,0.24592 m 0.64326,-0.74515 c -0.0701,0.084 -0.14059,0.16763 -0.2116,0.25084 m 0.6262,-0.75975 c -0.0681,0.0856 -0.13675,0.17083 -0.20585,0.25565 m 0.6088,-0.774 c -0.0662,0.0872 -0.13284,0.17395 -0.2,0.26035 m 0.59107,-0.78793 c -0.0642,0.0887 -0.12885,0.177 -0.19404,0.26493 m 0.57302,-0.80152 c -0.0621,0.0902 -0.1248,0.17997 -0.18796,0.26941 m 0.55462,-0.81478 c -0.0601,0.0916 -0.12066,0.18287 -0.18178,0.27377 m 0.5359,-0.82771 c -0.058,0.093 -0.11645,0.1857 -0.17548,0.27802 m 0.51684,-0.84031 c -0.0558,0.0944 -0.11217,0.18846 -0.16907,0.28217 m 0.49745,-0.85257 c -0.0536,0.0957 -0.10782,0.19114 -0.16255,0.2862 m 0.47773,-0.8645 c -0.0514,0.097 -0.10339,0.19374 -0.15592,0.29012 m 0.45767,-0.8761 c -0.0492,0.0983 -0.0989,0.19627 -0.14918,0.29393 m 0.43728,-0.88737 c -0.0469,0.0995 -0.0943,0.19873 -0.14233,0.29764 m 0.41657,-0.89831 c -0.0445,0.1007 -0.0897,0.20111 -0.13537,0.30123 m 0.39552,-0.90891 c -0.0422,0.10185 -0.0849,0.20342 -0.1283,0.3047 m 0.37413,-0.91918 c -0.0398,0.10297 -0.0801,0.20566 -0.12111,0.30807 m 0.35241,-0.92912 c -0.0373,0.10405 -0.0753,0.20783 -0.11382,0.31133 m 0.33037,-0.93872 c -0.0349,0.10508 -0.0703,0.20991 -0.10642,0.31448 m 0.30799,-0.948 c -0.0323,0.10608 -0.0653,0.21192 -0.0989,0.31751 m 0.28527,-0.95694 c -0.0298,0.10705 -0.0602,0.21387 -0.0913,0.32044 m 0.26223,-0.96555 c -0.0272,0.10798 -0.055,0.21573 -0.0835,0.32325 m 0.23885,-0.97382 c -0.0246,0.10887 -0.0498,0.21753 -0.0757,0.32596 m 0.21514,-0.98177 c -0.0219,0.10972 -0.0445,0.21924 -0.0677,0.32855 m 0.1911,-0.98938 c -0.0192,0.11054 -0.0391,0.22089 -0.0597,0.33103 m 0.16672,-0.99666 c -0.0165,0.11132 -0.0336,0.22246 -0.0515,0.3334 m 0.14201,-1.00361 c -0.0137,0.11207 -0.0281,0.22396 -0.0432,0.33566 m 0.11697,-1.01021 c -0.0109,0.11277 -0.0225,0.22538 -0.0348,0.3378 m 0.0916,-1.0165 c -0.008,0.11345 -0.0168,0.22674 -0.0263,0.33985 m 0.0659,-1.02245 c -0.005,0.11408 -0.0111,0.22801 -0.0177,0.34178 m 0.0399,-1.02807 c -0.002,0.11468 -0.005,0.22921 -0.009,0.34359 m 0.009,-0.34359 c -0.002,0.11468 -0.005,0.22921 -0.009,0.34359 m -1.08431,-1.32674 c 0.012,0.21771 0.0212,0.43599 0.0275,0.65478 m -0.133,-1.95399 c 0.0231,0.21531 0.0435,0.43126 0.0611,0.64781 m -0.23228,-1.93174 c 0.0339,0.21262 0.0652,0.42595 0.0937,0.63995 m -0.32889,-1.90683 c 0.0444,0.20962 0.0863,0.42004 0.12547,0.63119 m -0.42285,-1.87926 c 0.0547,0.20635 0.10678,0.41355 0.15635,0.62157 m -0.51415,-1.84904 c 0.0646,0.20276 0.1267,0.40646 0.18634,0.61105 m -0.60279,-1.81616 c 0.0742,0.19889 0.14602,0.39878 0.21544,0.59965 m -0.68877,-1.78061 c 0.0835,0.19472 0.16476,0.39051 0.24366,0.58735 m -0.77209,-1.74241 c 0.0926,0.19025 0.18291,0.38166 0.27099,0.57418 m -0.85276,-1.70155 c 0.10131,0.18549 0.20047,0.3722 0.29744,0.56011 m -0.93076,-1.65802 c 0.10975,0.18043 0.21743,0.36216 0.323,0.54516 m -1.00611,-1.61185 c 0.1179,0.17508 0.2338,0.35153 0.34766,0.52933 m -1.07879,-1.56302 c 0.12576,0.16943 0.24959,0.34032 0.37145,0.51261 m -1.14882,-1.51151 c 0.13332,0.16349 0.26478,0.3285 0.39435,0.49499 m -1.21619,-1.45736 c 0.14058,0.15725 0.27938,0.3161 0.41637,0.4765 m -1.2809,-1.40054 c 0.14755,0.15071 0.29339,0.3031 0.43749,0.45712 m -1.34295,-1.34107 c 0.15422,0.14389 0.30681,0.28952 0.45774,0.43685 m -1.40235,-1.27893 c 0.1606,0.13676 0.31964,0.27533 0.47709,0.41569 m -1.45908,-1.21414 c 0.16668,0.12934 0.33188,0.26057 0.49556,0.39365 m -1.51315,-1.14669 c 0.17247,0.12163 0.34353,0.24521 0.51314,0.37073 m -1.56457,-1.07658 c 0.17796,0.11361 0.35458,0.22926 0.52983,0.34691 m -1.61332,-1.00381 c 0.18316,0.1053 0.36505,0.21272 0.54564,0.32222 m -1.65941,-0.92839 c 0.18805,0.0967 0.37492,0.19559 0.56056,0.29663 m -1.70285,-0.8503 c 0.19266,0.0878 0.3842,0.17787 0.57459,0.27016 m -1.74363,-0.76956 c 0.19697,0.0786 0.3929,0.15956 0.58775,0.24281 m -1.78175,-0.68615 c 0.20098,0.0691 0.401,0.14065 0.60001,0.21455 m -1.81721,-0.60008 c 0.2047,0.0593 0.40851,0.12115 0.61138,0.18542 m -1.85001,-0.51136 c 0.20812,0.0493 0.41543,0.10107 0.62188,0.15541 m -1.88016,-0.41999 c 0.21126,0.0389 0.42176,0.0804 0.63149,0.12451 m -1.90765,-0.32595 c 0.21409,0.0282 0.4275,0.0591 0.6402,0.0927 m -1.93246,-0.22924 c 0.21662,0.0172 0.43264,0.0373 0.64803,0.06 m -1.95463,-0.12988 c 0.21886,0.006 0.4372,0.0148 0.65498,0.0265 m -1.96672,0.004 c 0.21764,-0.0123 0.43585,-0.0219 0.65458,-0.0286 m -1.95334,0.13615 c 0.21523,-0.0234 0.4311,-0.0442 0.64758,-0.0621 m -1.931,0.23534 c 0.21253,-0.0342 0.42577,-0.0658 0.63969,-0.0947 m -1.906015,0.33187 c 0.209529,-0.0447 0.419845,-0.0869 0.630915,-0.12645 m -1.878365,0.42575 c 0.206236,-0.055 0.413332,-0.10741 0.621252,-0.15731 m -1.848047,0.51697 c 0.202647,-0.0649 0.406228,-0.12731 0.610706,-0.18727 m -1.815085,0.60553 c 0.198762,-0.0745 0.398532,-0.14662 0.599273,-0.21635 m -1.779458,0.69143 c 0.194582,-0.0838 0.390246,-0.16534 0.586955,-0.24454 m -1.741168,0.77466 c 0.190107,-0.0928 0.381369,-0.18346 0.57375,-0.27183 m -1.700228,0.85524 c 0.185335,-0.10158 0.3719,-0.20101 0.559658,-0.29825 m -1.656625,0.93316 c 0.180269,-0.11001 0.361842,-0.21795 0.544681,-0.32378 m -1.610358,1.00842 c 0.174908,-0.11815 0.351192,-0.23431 0.528817,-0.34843 m -1.561441,1.08103 c 0.16925,-0.126 0.339951,-0.25007 0.512067,-0.37218 m -1.509861,1.15097 c 0.163297,-0.13355 0.328119,-0.26525 0.49443,-0.39506 m -1.455617,1.21826 c 0.157049,-0.14081 0.315697,-0.27983 0.475907,-0.41704 m -1.398724,1.28288 c 0.150506,-0.14776 0.302684,-0.29382 0.456499,-0.43814 m -1.339167,1.34485 c 0.143667,-0.15442 0.28908,-0.30722 0.436203,-0.45835 m -1.276947,1.40415 c 0.136532,-0.16079 0.274885,-0.32003 0.415021,-0.47767 m -1.212075,1.4608 c 0.129102,-0.16686 0.260099,-0.33225 0.392953,-0.49611 m -1.144542,1.5148 c 0.121377,-0.17265 0.244722,-0.34388 0.369999,-0.51368 m -1.074345,1.56613 c 0.113356,-0.17813 0.228754,-0.35492 0.346158,-0.53034 m -1.001497,1.6148 c 0.10504,-0.18331 0.212196,-0.36536 0.321431,-0.54612 m -0.925986,1.66082 c 0.09643,-0.1882 0.195047,-0.37522 0.295817,-0.56101 m -0.847813,1.70416 c 0.08752,-0.1928 0.177306,-0.38448 0.269318,-0.57502 m -0.766987,1.74487 c 0.07832,-0.1971 0.158975,-0.39316 0.241932,-0.58815 m -0.683499,1.78291 c 0.06882,-0.20111 0.140052,-0.40125 0.213659,-0.60038 m -0.59735,1.81827 c 0.05903,-0.20481 0.120539,-0.40873 0.1845,-0.61173 m -0.508546,1.851 c 0.04894,-0.20822 0.100435,-0.41563 0.154455,-0.62219 m -0.417082,1.88106 c 0.03855,-0.21135 0.07974,-0.42195 0.123525,-0.63177 m -0.322958,1.90845 c 0.02787,-0.21416 0.05846,-0.42766 0.09171,-0.64046 m -0.226176,1.93321 c 0.0169,-0.2167 0.03658,-0.4328 0.059,-0.64827 m -0.126734,1.95529 c 0.0056,-0.21893 0.01411,-0.43733 0.02541,-0.65518 m 0.009,1.96667 c -0.01271,-0.21757 -0.0226,-0.43571 -0.02965,-0.65437 m 0.139293,1.95267 c -0.02379,-0.21515 -0.04485,-0.43094 -0.06313,-0.64733 m 0.238403,1.93025 c -0.03458,-0.21243 -0.0665,-0.42559 -0.09573,-0.63942 m 0.334852,1.90518 c -0.04508,-0.20943 -0.08757,-0.41965 -0.127434,-0.63062 m 0.428645,1.87745 c -0.05528,-0.20613 -0.108041,-0.41312 -0.158255,-0.62093 m 0.519778,1.84706 c -0.06518,-0.20253 -0.127923,-0.406 -0.188189,-0.61036 m 0.608249,1.814 c -0.07479,-0.19864 -0.147214,-0.39828 -0.217236,-0.5989 m 0.694066,1.7783 c -0.0841,-0.19445 -0.165915,-0.38998 -0.245399,-0.58656 m 0.777222,1.73994 c -0.09312,-0.18997 -0.184024,-0.38108 -0.272674,-0.57333 m 0.857717,1.6989 c -0.101844,-0.18518 -0.201544,-0.37159 -0.299063,-0.5592 m 0.935557,1.65522 c -0.110271,-0.18011 -0.218472,-0.36152 -0.324566,-0.5442 m 1.010736,1.60887 c -0.118402,-0.17473 -0.234809,-0.35085 -0.349182,-0.5283 m 1.083252,1.55986 c -0.126238,-0.16907 -0.250555,-0.33959 -0.372912,-0.51153 m 1.153117,1.5082 c -0.133779,-0.1631 -0.26571,-0.32774 -0.395756,-0.49386 m 1.220319,1.45388 c -0.141024,-0.15685 -0.280275,-0.3153 -0.417714,-0.47531 m 1.284859,1.39689 c -0.147975,-0.15029 -0.294249,-0.30226 -0.438785,-0.45587 m 1.346747,1.33726 c -0.154629,-0.14345 -0.307631,-0.28865 -0.45897,-0.43556 m 1.405971,1.27496 c -0.160988,-0.1363 -0.320424,-0.27443 -0.47827,-0.41434 m 1.462538,1.21 c -0.167051,-0.12886 -0.332624,-0.25963 -0.496681,-0.39225 m 1.516444,1.14239 c -0.17282,-0.12113 -0.344234,-0.24423 -0.514207,-0.36927 m 1.567693,1.07211 c -0.178292,-0.1131 -0.355254,-0.22825 -0.530847,-0.3454 m 1.616283,0.99917 c -0.18347,-0.10477 -0.365682,-0.21166 -0.5466,-0.32064 m 1.662212,0.92358 c -0.188351,-0.0961 -0.375519,-0.1945 -0.561467,-0.295 m 1.705485,0.84533 c -0.192938,-0.0872 -0.384767,-0.17675 -0.575448,-0.26848 m 1.746097,0.76441 c -0.197229,-0.078 -0.393422,-0.15839 -0.588543,-0.24106 m 1.784051,0.68085 c -0.201225,-0.0685 -0.401487,-0.13945 -0.600751,-0.21276 m 1.819346,0.59461 c -0.204925,-0.0587 -0.408961,-0.11992 -0.612073,-0.18357 m 1.851981,0.50572 c -0.208329,-0.0486 -0.415844,-0.0998 -0.622508,-0.1535 m 1.881954,0.41418 c -0.21143,-0.0382 -0.42213,-0.0791 -0.632053,-0.12255 m 1.909273,0.31997 c -0.21425,-0.0275 -0.42783,-0.0578 -0.64072,-0.0907 m 1.93394,0.2231 c -0.21677,-0.0165 -0.43295,-0.0359 -0.6485,-0.058 m 1.95593,0.12357 c -0.21899,-0.005 -0.43746,-0.0134 -0.65538,-0.0243 m 1.96661,-0.0135 c -0.2175,0.0131 -0.43557,0.0233 -0.65416,0.0307 m 1.95201,-0.14243 c -0.21507,0.0241 -0.43079,0.0455 -0.64711,0.0642 m 1.92952,-0.24146 c -0.21235,0.0349 -0.42542,0.0672 -0.63917,0.0967 m 1.90436,-0.33783 c -0.20933,0.0454 -0.41946,0.0882 -0.63033,0.12841 m 1.87654,-0.43153 c -0.20602,0.0556 -0.41291,0.10867 -0.62062,0.1592 m 1.84607,-0.52258 c -0.20242,0.0655 -0.40577,0.12853 -0.61002,0.18911 m 1.81293,-0.61098 c -0.19851,0.0751 -0.39803,0.14781 -0.59853,0.21813 m 1.77714,-0.69671 c -0.19431,0.0844 -0.38971,0.1665 -0.58615,0.24627 m 1.73868,-0.77978 c -0.18981,0.0934 -0.38079,0.18458 -0.57289,0.27351 m 1.69758,-0.86019 c -0.18503,0.10211 -0.37129,0.20208 -0.55875,0.29987 m 1.6538,-0.93795 c -0.17994,0.11053 -0.36119,0.219 -0.54371,0.32535 m 1.60738,-1.01304 c -0.17456,0.11865 -0.35051,0.23531 -0.5278,0.34994 m 1.55829,-1.08548 c -0.16888,0.12647 -0.33923,0.25103 -0.51099,0.37364 m 1.50655,-1.15526 c -0.16292,0.13401 -0.32736,0.26617 -0.4933,0.39645 m 1.45214,-1.22237 c -0.15665,0.14124 -0.3149,0.28072 -0.47472,0.41838 m 1.39507,-1.28684 c -0.15009,0.14819 -0.30185,0.29468 -0.45525,0.43944 m 1.33535,-1.34864 c -0.14323,0.15483 -0.28821,0.30804 -0.43491,0.45958 m 1.27297,-1.40778 c -0.13608,0.16118 -0.27398,0.32082 -0.41367,0.47886 m 1.20793,-1.46426 c -0.12863,0.16723 -0.25915,0.33299 -0.39154,0.49724 m 1.14022,-1.51809 c -0.12088,0.173 -0.24374,0.34459 -0.36853,0.51474 m 1.06987,-1.56925 c -0.11285,0.17846 -0.22774,0.35559 -0.34464,0.53135 m 0.99685,-1.61776 c -0.10451,0.18363 -0.21114,0.366 -0.31986,0.54708 m 0.92117,-1.66361 c -0.0959,0.1885 -0.19395,0.37582 -0.29418,0.56192 m 0.84283,-1.70679 c -0.087,0.19307 -0.17617,0.38504 -0.26763,0.57587 m 0.76184,-1.74733 c -0.0777,0.19736 -0.15781,0.39369 -0.24019,0.58894 m 0.67819,-1.7852 c -0.0682,0.20135 -0.13885,0.40173 -0.21186,0.60112 m 0.59187,-1.8204 c -0.0584,0.20503 -0.1193,0.40918 -0.18265,0.61241 m 0.5029,-1.85296 c -0.0483,0.20843 -0.0992,0.41605 -0.15254,0.62282 m 0.41127,-1.88285 c -0.0379,0.21153 -0.0784,0.42232 -0.12156,0.63234 m 0.31698,-1.91009 c -0.0272,0.21434 -0.0571,0.42801 -0.0897,0.64098 m 0.22003,-1.93467 c -0.0162,0.21685 -0.0352,0.4331 -0.0569,0.64873 m 0.12043,-1.95658 c -0.005,0.21906 -0.0127,0.4376 -0.0233,0.65559 m 0.0233,-0.65559 c -0.005,0.21906 -0.0127,0.4376 -0.0233,0.65559 m -1.12881,-2.69045 c 0.0379,0.41264 0.065,0.82748 0.0811,1.24421 m -0.43497,-3.69145 c 0.0797,0.40271 0.14921,0.80819 0.20829,1.21616 m -0.80593,-3.59668 c 0.11913,0.39041 0.2287,0.78418 0.3284,1.18104 m -1.15562,-3.48065 c 0.15621,0.37574 0.30345,0.75544 0.44142,1.13881 m -1.48405,-3.34335 c 0.19093,0.35871 0.37348,0.72197 0.54735,1.0895 m -1.79119,-3.18477 c 0.22328,0.33932 0.43878,0.68378 0.64618,1.03309 m -2.07707,-3.00492 c 0.25328,0.31757 0.49936,0.64086 0.73794,0.9696 m -2.34168,-2.8038 c 0.2809,0.29344 0.5552,0.59321 0.82259,0.89901 m -2.58501,-2.58141 c 0.30617,0.26696 0.60632,0.54084 0.90016,0.82134 m -2.80708,-2.33775 c 0.32907,0.23812 0.65272,0.48374 0.97064,0.73657 m -3.00787,-2.07281 c 0.34961,0.20691 0.69438,0.42191 1.03402,0.64471 m -3.18739,-1.7866 c 0.36779,0.17333 0.73132,0.35535 1.09032,0.54577 m -3.34564,-1.47913 c 0.3836,0.1374 0.76354,0.28407 1.13952,0.43973 m -3.48261,-1.15038 c 0.39704,0.0991 0.79102,0.20806 1.18163,0.3266 m -3.59831,-0.80035 c 0.40813,0.0584 0.81378,0.12732 1.21666,0.20638 m -3.69275,-0.42906 c 0.41685,0.0154 0.83181,0.0419 1.24459,0.0791 m -3.74134,0.007 c 0.4125,-0.0385 0.82721,-0.0664 1.24382,-0.0831 m -3.69013,0.44094 c 0.40253,-0.0803 0.80786,-0.1505 1.21567,-0.21023 m -3.595029,0.81157 c 0.390194,-0.11973 0.783769,-0.2299 1.180428,-0.33023 m -3.478665,1.16093 c 0.375492,-0.15677 0.754956,-0.30458 1.138094,-0.44313 m -3.341032,1.48902 c 0.358426,-0.19146 0.721415,-0.37455 1.08867,-0.54896 m -3.182118,1.79583 c 0.338997,-0.22377 0.683147,-0.43976 1.032154,-0.64768 m -3.001937,2.08138 c 0.317205,-0.25373 0.640153,-0.50027 0.968549,-0.73931 m -2.800489,2.34565 c 0.293048,-0.28132 0.592431,-0.55604 0.897853,-0.82386 m -2.57776,2.58865 c 0.266528,-0.30655 0.539982,-0.60709 0.820066,-0.90132 m -2.333765,2.81038 c 0.237645,-0.32941 0.482807,-0.6534 0.735189,-0.97168 m -2.0685,3.01084 c 0.206398,-0.34991 0.420904,-0.69499 0.643221,-1.03495 m -1.781957,3.19002 c 0.172788,-0.36805 0.354273,-0.73186 0.544162,-1.09114 m -1.474146,3.34794 c 0.136813,-0.38382 0.282916,-0.764 0.438012,-1.14023 m -1.145064,3.48459 c 0.09848,-0.39724 0.206832,-0.79141 0.324773,-1.18224 m -0.794709,3.59995 c 0.05777,-0.40828 0.126021,-0.81409 0.204443,-1.21714 m -0.423083,3.69405 c 0.01471,-0.41696 0.04048,-0.83205 0.07702,-1.24497 m 0.01419,3.74131 c -0.03922,-0.41237 -0.06771,-0.82695 -0.08518,-1.24344 m 0.4469,3.68881 c -0.08096,-0.40236 -0.151775,-0.80752 -0.21216,-1.21518 m 0.817198,3.59337 c -0.120328,-0.38998 -0.23111,-0.78335 -0.332048,-1.17982 m 1.166227,3.47668 c -0.157337,-0.37524 -0.305717,-0.75446 -0.444845,-1.13737 m 1.493981,3.3387 c -0.191982,-0.35814 -0.375598,-0.72085 -0.550553,-1.08784 m 1.800464,3.17947 c -0.224262,-0.33868 -0.44075,-0.68251 -0.649168,-1.03122 m 2.085679,2.99896 c -0.25418,-0.31685 -0.501176,-0.63945 -0.740693,-0.9675 m 2.349616,2.79716 c -0.281735,-0.29265 -0.556876,-0.59165 -0.825129,-0.89669 m 2.592285,2.57411 c -0.306925,-0.2661 -0.607848,-0.53913 -0.902474,-0.81879 m 2.813683,2.32977 c -0.329752,-0.23717 -0.654092,-0.48187 -0.972725,-0.7338 m 3.013806,2.06418 c -0.350215,-0.20589 -0.695609,-0.4199 -1.035888,-0.64173 m 3.192659,1.77731 c -0.368315,-0.17224 -0.7324,-0.35319 -1.091961,-0.54256 m 3.350241,1.46917 c -0.384052,-0.13624 -0.764464,-0.28177 -1.140943,-0.4363 m 3.486551,1.13975 c -0.397424,-0.0979 -0.7918,-0.20561 -1.182834,-0.32295 m 3.601585,0.78906 c -0.40843,-0.0571 -0.81441,-0.12472 -1.21763,-0.2025 m 3.69535,0.41709 c -0.41708,-0.014 -0.83229,-0.0391 -1.24534,-0.075 m 3.74124,-0.0213 c -0.41223,0.0399 -0.82668,0.0691 -1.24305,0.0872 m 3.68747,-0.45286 c -0.40218,0.0816 -0.80717,0.15305 -1.21467,0.21409 m 3.59171,-0.82282 c -0.38977,0.12092 -0.78294,0.23231 -1.17921,0.33387 m 3.47468,-1.17152 c -0.37499,0.15789 -0.75397,0.30684 -1.13665,0.44655 m 3.33638,-1.49894 c -0.35786,0.19251 -0.72029,0.37665 -1.08701,0.55215 m 3.1768,-1.80509 c -0.33835,0.22475 -0.68187,0.44173 -1.03027,0.65065 m 2.99596,-2.08997 c -0.31649,0.25463 -0.63873,0.50209 -0.96645,0.74207 m 2.79384,-2.35357 c -0.29225,0.28214 -0.59086,0.55771 -0.89552,0.82639 m 2.57044,-2.59591 c -0.26566,0.3073 -0.53826,0.6086 -0.81751,0.90362 m 2.32578,-2.81697 c -0.2367,0.33009 -0.48094,0.65477 -0.73241,0.97376 m 2.05985,-3.01676 c -0.20538,0.35051 -0.41889,0.69622 -0.64023,1.03682 m 1.77265,-3.19529 c -0.1717,0.36858 -0.35211,0.73294 -0.54095,1.09278 m 1.46417,-3.35254 c -0.13565,0.38428 -0.2806,0.76493 -0.43457,1.14165 m 1.13442,-3.48851 c -0.0972,0.39761 -0.20438,0.79219 -0.32112,1.18343 m 0.78341,-3.60322 c -0.0565,0.40859 -0.12342,0.81473 -0.20057,1.21813 m 0.41111,-3.69666 c -0.0133,0.4172 -0.0377,0.83254 -0.0729,1.24572 m 0.0729,-1.24572 c -0.0133,0.4172 -0.0377,0.83254 -0.0729,1.24572 m -1.28846,-5.25435 c 0.13153,0.77406 0.22299,1.55751 0.27199,2.348 m -1.52335,-6.86068 c 0.28243,0.72701 0.5295,1.46815 0.73885,2.22106 m -2.83883,-6.39476 c 0.41441,0.66106 0.79819,1.34098 1.14897,2.03738 m -3.98413,-5.75866 c 0.52748,0.57621 1.02907,1.17599 1.50238,1.79699 m -4.95927,-4.95237 c 0.62166,0.47244 1.22213,0.97318 1.79907,1.49987 m -5.76423,-3.97593 c 0.69691,0.34976 1.37737,0.73256 2.03902,1.14602 m -6.39902,-2.8293 c 0.75327,0.20818 1.49481,0.45411 2.22226,0.73545 m -6.86363,-1.51251 c 0.79071,0.0477 1.57442,0.13787 2.34877,0.26816 m -7.07742,0.0123 c 0.77376,-0.13279 1.55696,-0.22553 2.34723,-0.27586 m -6.857704,1.5343 c 0.726574,-0.28353 1.467308,-0.53175 2.219841,-0.74227 m -6.390439,2.84844 c 0.660474,-0.41537 1.339837,-0.80014 2.035725,-1.15196 m -5.753009,3.99243 c 0.575467,-0.5283 1.17455,-1.03073 1.794884,-1.50493 m -4.9454,4.96623 c 0.471552,-0.62232 0.971446,-1.22349 1.497319,-1.80116 m -3.967615,5.76985 c 0.348729,-0.69743 0.730527,-1.37844 1.143031,-2.04068 m -2.819663,6.40332 c 0.206997,-0.75363 0.45179,-1.49558 0.732016,-2.22347 m -1.501532,6.8666 c 0.04636,-0.79093 0.135237,-1.57489 0.264277,-2.34954 m 0.02463,7.07738 c -0.134045,-0.77347 -0.228077,-1.55641 -0.279733,-2.34646 m 1.545242,6.85471 c -0.28464,-0.72613 -0.533995,-1.46646 -0.745701,-2.21862 m 2.858061,6.38612 c -0.416328,-0.65988 -0.802097,-1.33869 -1.154945,-2.03406 m 4.000703,5.74735 c -0.529107,-0.57473 -1.032383,-1.17311 -1.507464,-1.79278 m 4.973177,4.93841 c -0.622978,-0.47066 -1.224853,-0.96971 -1.803259,-1.49477 m 5.775475,3.9593 c -0.697942,-0.34769 -1.379507,-0.72849 -2.04233,-1.14004 m 6.407598,2.81001 c -0.753996,-0.20581 -1.496343,-0.44946 -2.224675,-0.72857 m 6.869548,1.49055 c -0.79114,-0.045 -1.57536,-0.13261 -2.3503,-0.2604 m 7.07731,-0.037 c -0.77317,0.1353 -1.55585,0.23062 -2.34567,0.2836 m 6.8517,-1.55617 c -0.72568,0.28574 -1.4656,0.53624 -2.2174,0.74912 m 6.38178,-2.86766 c -0.65929,0.41729 -1.33754,0.80405 -2.03239,1.15792 m 5.74168,-4.00897 c -0.57398,0.52992 -1.17166,1.03404 -1.79066,1.51 m 4.93141,-4.98011 c -0.46978,0.62364 -0.96797,1.22621 -1.49222,1.80535 m 3.95097,-5.78108 c -0.34665,0.69845 -0.72646,1.38056 -1.13704,2.04397 m 2.80035,-6.41187 c -0.20463,0.75436 -0.44712,1.49711 -0.72513,2.22588 m 1.47956,-6.87249 c -0.0437,0.79135 -0.12999,1.57583 -0.25651,2.35105 m 0.25651,-2.35105 c -0.0437,0.79135 -0.12999,1.57583 -0.25651,2.35105 m -1.87066,-10.01297 c 0.47142,1.41436 0.80121,2.87596 0.97044,4.3659 m -5.34734,-12.13387 c 0.96234,1.14975 1.82085,2.38457 2.55664,3.68553 m -9.42525,-9.41209 c 1.30199,0.73389 2.53798,1.59065 3.68905,2.55138 m -12.14176,-5.32892 c 1.49037,0.16675 2.95256,0.4942 4.36765,0.96342 m -13.23934,0.022 c 1.413619,-0.47363 2.87463,-0.80578 4.36412,-0.97752 m -12.125874,5.36594 c 1.148423,-0.96396 2.382054,-1.82425 3.681983,-2.56195 m -9.398768,9.43852 c 0.731962,-1.30302 1.586948,-2.54018 2.546049,-3.69258 m -5.310275,12.14971 c 0.164236,-1.49081 0.489311,-2.95358 0.956318,-4.36941 m 0.04414,13.23928 c -0.475848,-1.41287 -0.810354,-2.87329 -0.98461,-4.36233 m 5.384527,12.11786 c -0.965581,-1.14709 -1.827637,-2.37954 -2.56726,-3.67843 m 9.451779,9.38543 C 92.5958,264.8246 91.35746,263.97139 90.203737,263.01392 m 12.157643,5.29161 c -1.49125,-0.16172 -2.954611,-0.48443 -4.371168,-0.94921 m 13.239198,-0.0663 c -1.41213,0.47806 -2.87195,0.81492 -4.36055,0.99169 m 12.10983,-5.40309 c -1.14576,0.9672 -2.37701,1.83102 -3.67486,2.57256 m 9.37207,-9.46502 c -0.72811,1.30508 -1.57954,2.54459 -2.53537,3.69964 m 5.27292,-12.16556 c -0.1592,1.49169 -0.47953,2.95563 -0.94209,4.37292 m 0.94209,-4.37292 c -0.1592,1.49169 -0.47953,2.95563 -0.94209,4.37292 m -3.92186,-18.48767 c 1.63734,2.35385 2.83968,4.99201 3.45576,7.76322 m -17.28952,-17.26447 c 2.77223,0.61154 5.41201,1.80993 7.76806,3.4439 m -24.001728,0.0382 c 2.351624,-1.64074 4.988151,-2.84707 7.758318,-3.46774 m -17.239117,17.31481 c 0.606953,-2.77327 1.80134,-5.41467 3.431894,-7.77294 m 0.07665,24.00165 c -1.644129,-2.3494 -2.854451,-4.98429 -3.479701,-7.7534 m 17.340046,17.21371 c -2.774297,-0.60236 -5.417318,-1.79274 -7.777797,-3.41988 m 24.001517,-0.11507 c -2.34716,1.64752 -4.9804,2.86182 -7.74847,3.49165 m 17.18827,-17.36525 c -0.59776,2.77533 -1.78413,5.41996 -3.40785,7.78265 m -10.29614,-31.09692 c 4.95478,2.21716 9.14963,6.40672 11.37442,11.35856 m -38.413283,0.0578 c 2.209441,-4.95775 6.393649,-9.15794 11.342501,-11.39043 m 0.115966,38.41317 c -4.960715,-2.20172 -9.166226,-6.38057 -11.406411,-11.32643 m 38.412957,-0.17411 c -2.19398,4.96366 -6.36745,9.17449 -11.31031,11.42236 M 90.682372,231.64334 c 3.712754,-3.72791 8.727832,-6.1606 13.828038,-6.08087 5.0804,-0.0794 10.07633,2.33411 13.78472,6.0375 m 0.0867,27.52547 c -3.71702,3.7526 -8.75134,6.20463 -13.87145,6.12459 -5.060491,0.0791 -10.037175,-2.31523 -13.741069,-5.99402 m 13.824859,4.93737 c -0.0279,-4.9e-4 -0.0559,-0.001 -0.0838,-0.002 l -10e-6,0 c -9.528668,0.22259 -19.00801,-9.25675 -18.785412,-18.78542 -0.222381,-9.5194 9.238298,-18.98956 18.757592,-18.78604 M 86.781739,245.4583 c 4.87e-4,-0.0174 0.001,-0.0347 0.0016,-0.0521 -0.286196,-8.88672 8.840372,-18.01329 17.727092,-17.7271 l 10e-6,0 c 8.88677,-0.2862 18.01339,8.84047 17.72709,17.72724"
       transform="matrix(1.4426214,0,0,1.4426214,-33.986257,-127.50936)" />
  </g>
</svg>
